<?xml version="1.0" encoding="UTF-8" standalone="no"?>
<svg
   xmlns:dc="http://purl.org/dc/elements/1.1/"
   xmlns:cc="http://creativecommons.org/ns#"
   xmlns:rdf="http://www.w3.org/1999/02/22-rdf-syntax-ns#"
   xmlns:svg="http://www.w3.org/2000/svg"
   xmlns="http://www.w3.org/2000/svg"
   xmlns:xlink="http://www.w3.org/1999/xlink"
   height="80"
   width="80"
   version="1.0"
   viewBox="0 0 80 80"
   id="svg126">
  <defs
     id="defs34">
    <linearGradient
       id="a"
       x1="78.514"
       x2="145.03"
       y1="192.39999"
       y2="136.59"
       gradientTransform="matrix(0.75752,0,0,0.75752,283.07,528.85)"
       gradientUnits="userSpaceOnUse"
       href="#id0" />
    <linearGradient
       id="b"
       x1="56.694"
       x2="62.581001"
       y1="179.75999"
       y2="174.88"
       gradientTransform="matrix(0.47256,0,0,0.47256,-30.052,-675.07)"
       gradientUnits="userSpaceOnUse"
       href="#id0" />
    <linearGradient
       id="c"
       x1="39.639"
       x2="63.700001"
       y1="183.71001"
       y2="163.77"
       gradientTransform="matrix(0.75752,0,0,0.75752,283.07,528.85)"
       gradientUnits="userSpaceOnUse"
       href="#id0" />
    <linearGradient
       id="d"
       x1="50.181999"
       x2="168.52"
       y1="149.84"
       y2="50.537998"
       gradientUnits="userSpaceOnUse">
      <stop
         stop-color="#E77817"
         offset="0"
         id="stop5" />
      <stop
         stop-color="#E77817"
         offset=".27059"
         id="stop7" />
      <stop
         stop-color="#FFF500"
         offset=".34902"
         id="stop9" />
      <stop
         stop-color="#EB8A1B"
         offset=".41176"
         id="stop11" />
      <stop
         stop-color="#F8C200"
         offset=".63137"
         id="stop13" />
      <stop
         stop-color="#FFF500"
         offset=".6902"
         id="stop15" />
      <stop
         stop-color="#E77817"
         offset=".76863"
         id="stop17" />
      <stop
         stop-color="#E77817"
         offset="1"
         id="stop19" />
    </linearGradient>
    <style
       type="text/css"
       id="style22">.str0 {stroke:#28166F;stroke-width:0.0762}
    .str1 {stroke:white;stroke-width:0.0762}
    .fil5 {fill:#28166F}
    .fil2 {fill:#C2C1C1}
    .fil0 {fill:white}
    .fil4 {fill:#4D3E87}
    .fil3 {fill:#E77817;fill-rule:nonzero}
    .fil6 {fill:#E9823C;fill-rule:nonzero}
    .fil1 {fill:url(#d)}
    .fil8 {fill:url(#c);fill-rule:nonzero}
    .fil7 {fill:url(#b);fill-rule:nonzero}
    .fil9 {fill:url(#a);fill-rule:nonzero}</style>
    <style
       type="text/css"
       id="style24">.str0 {stroke:#28166F;stroke-width:0.0762}
    .str1 {stroke:white;stroke-width:0.0762}
    .fil5 {fill:#28166F}
    .fil2 {fill:#C2C1C1}
    .fil0 {fill:white}
    .fil4 {fill:#4D3E87}
    .fil3 {fill:#E77817;fill-rule:nonzero}
    .fil6 {fill:#E9823C;fill-rule:nonzero}
    .fil1 {fill:url(#d)}
    .fil8 {fill:url(#c);fill-rule:nonzero}
    .fil7 {fill:url(#b);fill-rule:nonzero}
    .fil9 {fill:url(#a);fill-rule:nonzero}</style>
    <style
       type="text/css"
       id="style26">.str0 {stroke:#28166F;stroke-width:0.0762}
    .str1 {stroke:white;stroke-width:0.0762}
    .fil5 {fill:#28166F}
    .fil2 {fill:#C2C1C1}
    .fil0 {fill:white}
    .fil4 {fill:#4D3E87}
    .fil3 {fill:#E77817;fill-rule:nonzero}
    .fil6 {fill:#E9823C;fill-rule:nonzero}
    .fil1 {fill:url(#d)}
    .fil8 {fill:url(#c);fill-rule:nonzero}
    .fil7 {fill:url(#b);fill-rule:nonzero}
    .fil9 {fill:url(#a);fill-rule:nonzero}</style>
    <style
       type="text/css"
       id="style28">.str0 {stroke:#28166F;stroke-width:0.0762}
    .str1 {stroke:white;stroke-width:0.0762}
    .fil5 {fill:#28166F}
    .fil2 {fill:#C2C1C1}
    .fil0 {fill:white}
    .fil4 {fill:#4D3E87}
    .fil3 {fill:#E77817;fill-rule:nonzero}
    .fil6 {fill:#E9823C;fill-rule:nonzero}
    .fil1 {fill:url(#d)}
    .fil8 {fill:url(#c);fill-rule:nonzero}
    .fil7 {fill:url(#b);fill-rule:nonzero}
    .fil9 {fill:url(#a);fill-rule:nonzero}</style>
    <style
       type="text/css"
       id="style30">.str0 {stroke:#28166F;stroke-width:0.0762}
    .str1 {stroke:white;stroke-width:0.0762}
    .fil5 {fill:#28166F}
    .fil2 {fill:#C2C1C1}
    .fil0 {fill:white}
    .fil4 {fill:#4D3E87}
    .fil3 {fill:#E77817;fill-rule:nonzero}
    .fil6 {fill:#E9823C;fill-rule:nonzero}
    .fil1 {fill:url(#d)}
    .fil8 {fill:url(#c);fill-rule:nonzero}
    .fil7 {fill:url(#b);fill-rule:nonzero}
    .fil9 {fill:url(#a);fill-rule:nonzero}</style>
    <style
       type="text/css"
       id="style32">.fil0 {fill:none}
    .fil2 {fill:#1F1A17}
    .fil1 {fill:#28166F}
    .fil3 {fill:white}
    .fil4 {fill:#1F1A17;fill-rule:nonzero}</style>
    <linearGradient
       gradientTransform="translate(0,-20)"
       xlink:href="#d"
       id="linearGradient995"
       x1="55.12088"
       y1="117.43428"
       x2="133.92696"
       y2="117.43428"
       gradientUnits="userSpaceOnUse"
       spreadMethod="reflect" />
  </defs>
  <metadata
     id="metadata36">
    <rdf:RDF>
      <cc:Work
         rdf:about="">
        <dc:format>image/svg+xml</dc:format>
        <dc:type
           rdf:resource="http://purl.org/dc/dcmitype/StillImage" />
        <dc:title></dc:title>
      </cc:Work>
    </rdf:RDF>
  </metadata>
  <g
     transform="matrix(0.80001277,0,0,0.80001277,-1.9642934e-4,15.999138)"
     id="g919">
    <path
       id="path38"
       d="m 50,29.312 v 0"
       style="fill-rule:evenodd" />
    <circle
       style="fill:#1f2464;fill-opacity:1"
       id="circle-bg"
       r="33.415001"
       cy="28.351002"
       cx="48.757" />
    <path
       id="banner-bg"
       d="m 49.004,59.751 c -7.2675,0 -14.535,0.40876 -21.781,1.2246 -3.6508,0.41076 -7.3894,0.9711 -10.945,1.5893 -1.3896,0.24083 -2.7943,0.43879 -4.1749,0.7275 -0.86141,0.18028 -1.8939,0.33971 -2.4051,0.70446 -0.23517,0.16761 -0.33359,0.42974 -0.29368,0.63535 l 0.57008,2.4973 C 9.21391,67.25305 8.4976,67.40748 7.861,67.49997 6.0565,67.76239 4.3742,67.93451 3.4865,68.0547 1.8716,68.27392 1.5784,68.39241 1.185,68.58065 l 5.5339,4.8179 -2.4474,6.6011 c 1.1074,-0.56285 3.4115,-0.5755 6.1366,-1.0346 2.8143,-0.47367 5.9486,-0.98055 6.4687,-1.3552 0.33988,-0.24458 0.45799,-0.51566 0.40117,-0.72174 l -0.0098,-0.03843 -0.002,-0.0039 -0.54706,-2.457 c 0.79241,-0.13609 1.5841,-0.26587 2.3648,-0.39733 19.839,-3.3443 39.999,-3.3443 59.838,0 0.78161,0.1319 1.571,0.26025 2.3648,0.39733 l -0.54321,2.4358 c -0.0069,0.01966 -0.01071,0.04039 -0.01533,0.06142 -0.05671,0.20607 0.06123,0.47907 0.40117,0.72365 0.52014,0.37461 3.6544,0.88149 6.4687,1.3552 2.7251,0.45911 5.0312,0.47176 6.1385,1.0346 l -2.4474,-6.6011 5.5339,-4.8179 c -0.39339,-0.18823 -0.68853,-0.30672 -2.3034,-0.52595 -0.88771,-0.12018 -2.5681,-0.29232 -4.3726,-0.55473 -0.63656,-0.09248 -1.3548,-0.24699 -2.1153,-0.37047 l 0.57009,-2.4973 c 0.0399,-0.2056 -0.05848,-0.46774 -0.29368,-0.63536 -0.51121,-0.36474 -1.5418,-0.52419 -2.4032,-0.70445 -1.3806,-0.2887 -2.7854,-0.48666 -4.1749,-0.72749 -3.5555,-0.61826 -7.296,-1.1786 -10.947,-1.5894 -7.2456,-0.81588 -14.513,-1.2246 -21.781,-1.2246 z"
       style="clip-rule:evenodd;fill:#bab3d6;stroke-width:13.94299984;image-rendering:optimizeQuality;shape-rendering:geometricPrecision" />
    <circle
       id="circle44"
       r="13.924"
       cy="60.540001"
       cx="59.967999"
       style="color:#000000;fill:none" />
    <g
       id="text-chandra"
       transform="matrix(0.98278,0,0,0.98278,0.98704,-179.7)"
       style="fill:#000066">
      <path
         id="path46"
         d="m 3.2984,235.51 3.5407,-1.4706 0.44281,0.63849 q -0.053208,0.0369 -0.093114,0.0646 -0.04452,0.021 -0.10438,0.0625 -1.0509,0.72879 -1.342,1.502 -0.29115,0.77322 -0.13249,1.3428 0.15865,0.56961 0.40773,0.92877 0.53506,0.77151 1.5622,1.0737 1.0159,0.30017 2.253,0.18101 1.2372,-0.11927 2.4751,-0.56411 1.2313,-0.44023 2.1092,-1.0491 0.59859,-0.41513 0.96826,-0.94731 0.36967,-0.53217 0.40808,-1.1301 0.0338,-0.60459 -0.3675,-1.1832 -0.37823,-0.54538 -1.1157,-0.96965 -0.74876,-0.42632 -1.6923,-0.57962 -0.95022,-0.1487 -1.9631,0.081 l -0.44281,-0.63849 3.5998,-1.1865 0.38746,0.55868 q -0.26915,0.13741 -0.48198,0.28502 -0.21948,0.15221 -0.4292,0.34691 0.79918,0.11554 1.6068,0.56996 0.801,0.45903 1.3407,1.2372 0.67344,0.97105 0.76139,2.092 0.08129,1.1256 -0.41646,2.1406 -0.49776,1.015 -1.4555,1.6792 -1.1706,0.81183 -2.5689,1.0822 -1.4096,0.26838 -2.7586,0.0417 -1.3491,-0.22669 -2.4543,-0.86873 -1.1119,-0.63743 -1.7576,-1.5686 -0.46126,-0.66509 -0.59899,-1.3182 -0.13773,-0.65308 -0.085373,-1.1031 0.052367,-0.45001 0.17079,-0.84735 -0.60566,-0.0922 -1.3493,0.12807 l -0.42436,-0.6119 z"
         style="color:#000000" />
      <path
         id="path48"
         d="m 7.6928,221.88 q 1.071,0.15881 1.9313,0.64215 0.86032,0.48334 1.1599,1.3218 0.22332,0.625 0.0606,1.0356 -0.17307,0.40564 -0.58466,0.55271 -0.18293,0.0654 -0.35661,0.0845 -0.18402,0.0142 -0.59835,0.0333 l -2.143,0.1125 q -0.64191,0.0317 -0.9849,0.15424 -0.14482,0.0517 -0.25533,0.15139 -0.11324,0.092 -0.1437,0.22325 -0.040812,0.12632 0.013641,0.27876 0.21243,0.59451 1.4348,1.0086 1.212,0.40924 2.1322,0.45864 1.7989,0.0792 2.2002,0.0476 l 0.56732,-0.048 0.64819,1.814 -9.468,0.44361 q -0.55044,-0.001 -0.71813,0.0589 -0.26677,0.0953 -0.27163,0.34632 -0.015201,0.2461 0.12641,0.64244 l 0.081705,0.22866 -0.78293,0.0219 q -0.67651,-1.8211 -1.098,-2.4956 l -0.18519,-0.51829 7.1868,-0.33327 q -0.91201,-0.26718 -1.5082,-0.49249 -0.59622,-0.22531 -1.2083,-0.71141 -0.62239,-0.491 -0.89474,-1.2532 -0.19881,-0.5564 -0.044809,-1.0154 0.14366,-0.4639 0.57049,-0.61642 0.36586,-0.13073 1.3508,-0.16464 l 2.7876,-0.13655 q 0.45026,-0.0148 0.6027,-0.0693 0.083841,-0.03 0.15407,-0.098 0.067497,-0.0757 0.029363,-0.1824 -0.16341,-0.45732 -1.511,-0.74077 l -0.28052,-0.7851 z"
         style="color:#000000" />
      <path
         id="path50"
         d="m 6.7686,212.59 q 0.50063,0.1803 0.92711,0.42589 0.42647,0.24559 0.76361,0.56631 0.33713,0.32072 0.53037,0.66563 0.19234,0.33688 0.23543,0.72299 0.09427,0.84462 -0.38557,1.1425 -0.48878,0.29074 -1.1966,0.36974 0.836,0.55823 1.3887,1.1318 0.55267,0.57356 0.64245,1.378 0.052971,0.47459 -0.16942,0.81704 -0.23044,0.34334 -0.6558,0.54556 -0.42626,0.19417 -0.93303,0.25073 -1.0859,0.12121 -2.3545,-0.29916 -1.2685,-0.42036 -2.195,-1.278 -0.92732,-0.86566 -1.0503,-1.9677 -0.056563,-0.50677 0.11221,-0.8188 0.16878,-0.31203 0.40647,-0.44443 0.23679,-0.14045 0.53349,-0.25501 l -1.0387,-0.1854 -0.19842,-1.7777 5.0738,0.94851 q 0.54886,0.10162 0.66148,0.0891 0.10457,-0.0117 0.16978,-0.0841 0.064315,-0.0805 0.054432,-0.16896 -0.058356,-0.52286 -1.2349,-0.99421 l -0.087087,-0.78027 z m -2.8747,3.3586 q -0.39416,0.044 -0.65863,0.22825 -0.26538,0.17622 -0.22139,0.57037 0.067337,0.6033 0.83091,1.0963 0.75463,0.48587 1.7835,0.72937 1.02,0.23636 1.6957,0.16094 0.97332,-0.10863 0.90509,-0.71997 -0.047582,-0.42634 -0.48307,-0.82566 -0.44444,-0.40647 -1.1382,-0.71181 -0.71969,-0.31874 -1.4348,-0.45067 -0.71603,-0.13998 -1.2791,-0.0771 z"
         style="color:#000000" />
      <path
         id="path52"
         d="m 7.6481,202.45 q 0.39873,0.2764 0.85648,0.73928 0.45872,0.45485 0.78068,1.097 0.31394,0.64118 0.23149,1.3242 -0.071787,0.59464 -0.40276,0.90525 -0.33099,0.31061 -0.80509,0.25339 -0.36964,-0.0446 -0.9802,-0.32213 l -1.8658,-0.82035 q -0.75742,-0.34416 -1.0547,-0.38005 -0.17678,-0.0213 -0.33501,0.0737 -0.15725,0.087 -0.18053,0.27986 -0.05236,0.43392 0.60321,1.149 0.65558,0.71504 1.8225,1.5163 1.1679,0.79318 2.5893,1.4458 l -0.23084,1.9125 -4.5333,-2.0228 q -0.68385,-0.27821 -0.79635,-0.29179 -0.096438,-0.0115 -0.19868,0.025 -0.11028,0.0356 -0.12677,0.17221 -0.037832,0.31339 0.321,0.6502 0.3598,0.32877 0.80161,0.58591 l -0.081459,0.675 q -0.82295,-0.40914 -1.4374,-1.1274 -0.61444,-0.71822 -0.49611,-1.6986 0.075664,-0.62678 0.45001,-0.8914 0.37533,-0.27265 0.753,-0.22706 0.20892,0.0252 0.62414,0.16501 0.41522,0.1398 0.77128,0.29691 l 0.79372,0.38115 q -1.4145,-1.1817 -2.1927,-2.1643 -0.78623,-0.98354 -0.65723,-2.0523 0.074684,-0.61873 0.47023,-0.85634 0.38751,-0.23856 0.80537,-0.18813 0.25714,0.0311 0.94903,0.31022 l 2.6945,1.1813 q 0.50486,0.20768 0.71378,0.2329 0.080349,0.01 0.1585,-0.0298 0.07911,-0.0475 0.089778,-0.13591 0.027139,-0.22499 -0.24452,-0.60835 -0.27875,-0.39236 -0.75714,-0.75176 l 0.097008,-0.80355 z"
         style="color:#000000" />
      <path
         id="path54"
         d="m 2.8715,189.15 7.6967,5.9839 q 0.5199,0.38707 0.69402,0.45295 0.26496,0.10023 0.35947,-0.14959 0.08878,-0.23468 -0.07962,-0.63588 -0.17598,-0.40408 -0.54796,-0.83903 l 0.27494,-0.72675 q 0.26926,0.24898 0.60974,0.76721 0.34048,0.51823 0.50154,1.1676 0.16106,0.64939 -0.08526,1.3004 -0.49547,1.3096 -1.9035,0.77696 -0.05299,-0.0201 -0.09841,-0.0372 -0.04256,-0.0248 -0.10312,-0.0477 0.27725,0.43373 0.49253,1.0084 0.2077,0.57184 0.24947,1.1934 0.03707,0.61113 -0.16914,1.1562 -0.30644,0.81002 -0.98447,1.0468 -0.6856,0.23389 -1.4805,-0.0668 -0.85544,-0.32363 -1.5849,-0.98035 -0.72657,-0.66429 -1.2025,-1.5107 -0.48351,-0.84926 -0.60775,-1.779 -0.13181,-0.93255 0.18322,-1.7653 0.24057,-0.63591 0.58797,-0.86794 0.3474,-0.23203 0.77684,-0.33783 l -2.6145,-2.0102 q -0.3638,-0.31936 -0.50763,-0.37377 -0.2044,-0.0773 -0.34393,0.017 -0.13953,0.0943 -0.232,0.293 -0.097176,0.18824 -0.2461,0.58189 L 1.87892,192.3225 q 0.27698,-0.77789 0.42795,-1.2227 0.15097,-0.4448 0.22379,-0.72879 0.075682,-0.29156 0.14032,-0.69114 l 0.20048,-0.52992 z m 4.3482,5.868 q -0.49207,-0.18616 -0.9074,-0.049 -0.41532,0.13711 -0.57284,0.55347 -0.24916,0.65862 0.18791,1.5163 0.43236,0.84722 1.2185,1.56 0.78611,0.71278 1.5053,0.98486 0.50721,0.19188 0.82883,0.028 0.32162,-0.1639 0.4505,-0.50456 0.19189,-0.50721 0.011806,-1.1292 -0.18479,-0.63241 -0.63392,-1.2523 -0.43501,-0.58861 -0.99072,-1.0412 -0.56042,-0.46297 -1.0979,-0.66632 z"
         style="color:#000000" />
      <path
         id="path56"
         d="m 12.494,184.07 q 0.42821,0.27686 0.60746,0.73009 0.17244,0.44883 -0.06045,0.80908 -0.19776,0.30586 -0.74696,0.36522 -0.31618,0.0269 -0.41725,0.18322 -0.11866,0.18352 0.02145,0.72711 0.1333,0.53918 0.48452,1.2482 0.35561,0.7022 0.88555,1.5075 0.52313,0.80088 1.1442,1.5398 l 0.22594,0.26175 -1.0327,1.5973 -3.1232,-3.5325 q -0.44069,-0.52589 -0.6582,-0.66651 -0.081564,-0.0527 -0.1871,-0.0535 -0.11231,-0.005 -0.17824,0.0968 -0.17139,0.26509 0.026662,0.77867 0.19125,0.50919 0.40923,0.84288 l -0.4043,0.62533 q -0.53357,-0.904 -0.6981,-1.5887 -0.16694,-0.69587 -0.090765,-1.1864 0.080578,-0.49729 0.28271,-0.80995 0.35157,-0.54376 0.79249,-0.48037 0.44532,0.0566 0.77158,0.26755 0.59134,0.38232 1.6163,1.5847 -0.41561,-0.81809 -0.65843,-1.3221 -0.23842,-0.51077 -0.4469,-1.1275 -0.20409,-0.6235 -0.22987,-1.1799 -0.02139,-0.56321 0.21592,-0.93025 0.33838,-0.52336 0.74731,-0.49993 0.40214,0.019 0.7012,0.21241 z"
         style="color:#000000" />
      <path
         id="path58"
         d="m 21.776,179.92 q 0.17657,0.50196 0.25569,0.9877 0.07912,0.48573 0.04355,0.94968 -0.03569,0.46394 -0.18081,0.83167 -0.13958,0.36194 -0.41162,0.6393 -0.59509,0.60674 -1.1292,0.42305 -0.53418,-0.19514 -1.0427,-0.69389 0.09556,1.0007 2e-4,1.7915 -0.09535,0.79077 -0.6621,1.3686 -0.33438,0.34094 -0.74033,0.38494 -0.41172,0.0383 -0.83722,-0.16359 -0.41983,-0.2077 -0.78388,-0.56475 -0.7801,-0.76511 -1.2558,-2.014 -0.47572,-1.2488 -0.39636,-2.5088 0.08504,-1.2657 0.86147,-2.0574 0.35705,-0.36404 0.70555,-0.43038 0.34849,-0.0663 0.6013,0.0342 0.25848,0.0948 0.53473,0.25238 l -0.51262,-0.92225 1.2525,-1.277 2.4707,4.532 q 0.26803,0.48962 0.34893,0.56897 0.07512,0.0737 0.17247,0.0785 0.10302,-10e-4 0.16536,-0.0646 0.36839,-0.3756 -0.0097,-1.5853 l 0.54975,-0.56052 z m -4.4196,-0.10595 q -0.28314,-0.27771 -0.59308,-0.36628 -0.30426,-0.0943 -0.58197,0.1888 -0.42506,0.43339 -0.32472,1.3367 0.10022,0.89191 0.56161,1.8433 0.46128,0.93991 0.94667,1.416 0.6992,0.68577 1.1299,0.2466 0.30038,-0.30626 0.33472,-0.89612 0.03424,-0.6013 -0.16746,-1.332 -0.20769,-0.75921 -0.55728,-1.3969 -0.34393,-0.64342 -0.74842,-1.0402 z"
         style="color:#000000" />
      <path
         id="path60"
         d="m 34.98,162.5 0.1054,0.77119 q -0.21323,0.0981 -0.37955,0.20139 -0.15896,0.0999 -0.34572,0.27491 -0.1794,0.17165 -0.43362,0.52919 -0.25423,0.35755 -0.56578,0.91968 l -2.3938,4.2467 4.2407,3.136 q 0.33211,0.25703 0.57787,0.3845 0.24973,0.11674 0.51489,0.0927 0.27251,-0.0274 0.69897,-0.22363 l 0.09805,0.77458 -4.4852,2.0639 -0.09805,-0.77458 q 0.47793,-0.21993 0.72747,-0.43276 0.24954,-0.21284 0.10744,-0.52166 -0.09474,-0.20588 -0.3105,-0.36497 l -3.084,-2.2873 -0.92334,1.6722 0.2354,1.7894 q 0.08081,0.52414 0.1654,0.70795 0.16918,0.36765 0.5264,0.40819 0.35723,0.0405 0.77634,-0.15232 l 0.11276,0.76782 -4.2132,1.9387 -0.09805,-0.77458 q 0.61764,-0.28421 0.73112,-0.65719 0.11348,-0.37297 0.01927,-1.0424 l -0.96436,-7.0137 q -0.08979,-0.58237 -0.14392,-0.70001 -0.3282,-0.71322 -1.2914,-0.26999 l -0.09805,-0.77458 4.3823,-2.0166 0.11276,0.76781 q -0.52205,0.24022 -0.73086,0.42541 -0.21219,0.17783 -0.26568,0.48756 -0.04612,0.30634 0.03291,0.88473 l 0.52746,3.9538 2.9082,-5.2586 q 0.43168,-0.8045 0.26589,-1.1648 -0.22331,-0.48528 -1.113,-0.0759 l -0.20588,0.0947 -0.1054,-0.7712 4.3823,-2.0166 z"
         style="color:#000000" />
      <path
         id="path62"
         d="m 46.379,170.09 q -0.20157,0.84355 -0.70906,1.6703 -0.49951,0.82548 -1.5546,0.99368 -0.65542,0.10449 -0.98325,-0.20388 -0.31984,-0.30964 -0.39374,-0.77324 -0.03186,-0.19982 -0.01216,-0.539 0.02769,-0.34046 0.08387,-0.75922 l 0.11978,-0.94526 q -0.63353,1.5271 -1.3906,2.6395 -0.74903,1.1111 -1.8601,1.2883 -0.5675,0.0905 -0.92348,-0.18882 -0.35598,-0.27929 -0.42734,-0.7269 -0.06753,-0.42363 0.04159,-1.1787 l 0.3868,-2.7664 q 0.0834,-0.50507 0.05025,-0.71289 -0.01531,-0.0959 -0.09452,-0.18163 -0.07252,-0.095 -0.21639,-0.0721 -0.47159,0.0752 -1.0126,1.3089 l -0.73536,0.11723 q 0.40463,-0.95788 0.96356,-1.7191 0.56693,-0.76246 1.566,-0.92174 0.4556,-0.0726 0.87078,0.11526 0.42189,0.17863 0.52765,0.84205 0.06244,0.39165 0.0082,0.71994 l -0.31648,2.2306 q -0.10658,0.77103 -0.05434,1.0987 0.02803,0.17585 0.15743,0.31915 0.13739,0.14202 0.32922,0.11144 0.37567,-0.0599 0.83672,-0.71532 0.45977,-0.66342 0.91479,-1.9736 0.46174,-1.3194 0.79467,-3.2412 l 1.9023,-0.30327 -0.7174,5.114 q -0.06106,0.54248 -0.04448,0.64639 0.01531,0.0959 0.1038,0.18836 0.09522,0.0832 0.18314,0.0692 0.29574,-0.0471 0.50379,-0.49011 0.20805,-0.44298 0.34996,-0.94098 l 0.75134,-0.11977 z"
         style="color:#000000" />
      <path
         id="path64"
         d="m 62.923,171.93 q -1.5663,2.0257 -3.2921,1.7461 -0.60722,-0.0984 -0.89642,-0.4896 -0.2812,-0.38993 -0.2126,-0.81339 0.05049,-0.3116 0.31815,-0.8504 l 0.94679,-1.8965 q 0.32833,-0.66016 0.36457,-0.88387 0.04661,-0.28763 -0.102,-0.48389 -0.14859,-0.19627 -0.43622,-0.24286 -0.67114,-0.10873 -1.5585,0.51006 -0.87811,0.61209 -1.7261,1.6964 -0.84673,1.0764 -1.3965,2.1926 l -0.17269,0.35739 -1.9016,-0.30806 1.8802,-3.8115 q 0.22536,-0.48006 0.26808,-0.74372 0.04273,-0.26366 -0.06464,-0.46144 -0.10606,-0.20577 -0.41766,-0.25625 -0.5433,-0.088 -1.2109,0.2876 -0.65962,0.3769 -1.3099,1.0505 -0.6423,0.6749 -1.228,1.5066 -0.57642,0.82496 -0.99844,1.6585 l -0.12261,0.25072 -1.9016,-0.30806 2.1399,-4.3516 q 0.34797,-0.73077 0.37515,-0.89856 0.02073,-0.12783 -0.05553,-0.21398 -0.06696,-0.0928 -0.16283,-0.10838 -0.11186,-0.0181 -0.30575,0.0653 -0.1926,0.0754 -0.45234,0.3121 -0.25174,0.238 -0.57039,0.68654 l -0.7031,-0.1139 q 0.47536,-0.80853 1.2405,-1.3815 0.77446,-0.57969 1.7572,-0.42049 0.32758,0.0531 0.61178,0.2221 0.2842,0.16904 0.41726,0.46118 0.14105,0.29343 0.07633,0.69292 -0.06991,0.43144 -0.4837,1.3155 l -0.35596,0.72948 q 0.57967,-0.69324 1.1827,-1.2269 0.61101,-0.53238 1.2335,-0.8825 0.62378,-0.35812 1.1595,-0.47632 0.53701,-0.12619 1.0324,-0.0459 0.67114,0.10872 1.031,0.51959 0.3678,0.41216 0.27461,0.98742 -0.0673,0.41547 -0.45219,1.2223 l -0.32963,0.66815 q 0.61141,-0.73729 1.3351,-1.358 0.73171,-0.61941 1.5857,-0.98124 0.86195,-0.36053 1.7248,-0.22073 0.51934,0.0841 0.81326,0.34493 0.29393,0.26081 0.39655,0.58901 0.10391,0.32021 0.05861,0.59985 -0.03884,0.2397 -0.10855,0.41699 -0.06842,0.1693 -0.32682,0.7014 l -1.1683,2.3526 q -0.22947,0.45479 -0.25406,0.6066 -0.04272,0.26366 0.20497,0.30379 0.21572,0.0349 0.59012,-0.15039 0.3757,-0.19331 0.87592,-0.80103 z"
         style="color:#000000" />
      <path
         id="path66"
         d="m 71.203,176.74 q -0.42559,0.3194 -0.86502,0.54098 -0.43943,0.22158 -0.89259,0.32723 -0.45316,0.10566 -0.84754,0.0778 -0.38716,-0.0242 -0.73352,-0.20023 -0.75766,-0.38499 -0.74314,-0.94958 0.02542,-0.56814 0.34807,-1.2031 -0.92559,0.39218 -1.7084,0.53913 -0.78282,0.14695 -1.5044,-0.21971 -0.42573,-0.21633 -0.58982,-0.59023 -0.16042,-0.38112 -0.09586,-0.84765 0.07178,-0.46287 0.30277,-0.91746 0.49499,-0.97414 1.5429,-1.8035 1.0479,-0.82938 2.2733,-1.1327 1.2327,-0.29968 2.2212,0.20264 0.4546,0.231 0.6227,0.54339 0.1681,0.31239 0.14824,0.58375 -0.01262,0.27502 -0.07981,0.58589 l 0.72531,-0.76631 1.5947,0.81031 -3.5788,3.7196 q -0.38631,0.40291 -0.43764,0.50393 -0.04767,0.0938 -0.02292,0.18808 0.03194,0.0979 0.11132,0.13828 0.46902,0.23833 1.509,-0.48612 l 0.69994,0.35565 z m -1.2285,-4.2467 q 0.17966,-0.35357 0.17089,-0.67579 -0.0015,-0.31855 -0.35512,-0.49821 -0.54119,-0.275 -1.3725,0.0924 -0.82043,0.3639 -1.5889,1.0901 -0.7576,0.72267 -1.0656,1.3288 -0.44366,0.87311 0.10474,1.1518 0.38244,0.19433 0.9553,0.0496 0.58375,-0.14825 1.2199,-0.56039 0.66156,-0.42647 1.1645,-0.95169 0.51015,-0.52157 0.76682,-1.0267 z"
         style="color:#000000" />
      <path
         id="path68"
         d="m 81.575,173.12 -7.8549,5.702 q -0.58897,0.41737 -0.69139,0.55302 -0.08291,0.10981 -0.08001,0.21342 0.0029,0.10362 0.08688,0.16702 0.16795,0.12681 0.69431,0.0476 0.52636,-0.0792 0.9934,-0.33513 l 0.60719,0.45846 q -0.77009,0.36174 -1.7387,0.54317 -0.96862,0.18142 -1.7631,-0.41847 -0.48446,-0.36579 -0.58163,-0.85498 -0.08583,-0.49077 0.20192,-0.87188 0.22435,-0.29713 0.9367,-0.82419 l 5.7212,-4.1386 q 0.56141,-0.40775 0.6931,-0.58215 0.1707,-0.22608 0.03698,-0.43858 -0.12722,-0.20761 -0.63106,-0.58803 l 0.60373,-0.47722 0.69116,0.52186 q 0.4457,0.33652 0.83828,0.58222 0.39258,0.2457 0.79675,0.40889 l 0.43924,0.33164 z"
         style="color:#000000" />
      <path
         id="path70"
         d="m 81.98,186.69 q -0.5096,0.15313 -0.99848,0.20964 -0.48888,0.0565 -0.95068,-5.1e-4 -0.46181,-0.057 -0.82239,-0.21917 -0.35508,-0.15621 -0.61954,-0.44081 -0.5785,-0.62257 -0.37025,-1.1476 0.2197,-0.52457 0.74147,-1.0094 -1.004,0.0491 -1.7896,-0.0828 -0.7855,-0.13191 -1.3365,-0.72484 -0.32507,-0.34982 -0.3502,-0.75737 -0.01921,-0.41306 0.20222,-0.82874 0.22694,-0.40975 0.60048,-0.75686 0.80045,-0.74379 2.07,-1.1611 1.2695,-0.41733 2.5245,-0.27965 1.2604,0.1436 2.0152,0.95591 0.3471,0.37354 0.39722,0.72474 0.05011,0.35119 -0.06207,0.59907 -0.10667,0.2538 -0.27689,0.52246 l 0.94501,-0.46932 1.2176,1.3104 -4.6416,2.258 q -0.50152,0.24505 -0.58453,0.32218 -0.07708,0.0716 -0.08637,0.16864 -0.0038,0.10295 0.05683,0.16818 0.35812,0.3854 1.5841,0.0638 l 0.53443,0.57513 z m 0.31069,-4.4099 q 0.29053,-0.26997 0.39338,-0.57546 0.10835,-0.29956 -0.16162,-0.5901 -0.41322,-0.44469 -1.3202,-0.38634 -0.89559,0.0588 -1.8673,0.47557 -0.96028,0.41722 -1.4583,0.88002 -0.71744,0.66666 -0.29871,1.1173 0.29201,0.31425 0.87964,0.37589 0.59907,0.0621 1.3383,-0.10553 0.76803,-0.17227 1.4212,-0.49194 0.65868,-0.31373 1.0737,-0.6994 z"
         style="color:#000000" />
      <path
         id="path72"
         d="m 97.097,196.18 -3.2024,0.88702 -0.31637,-0.7097 q 0.49932,-0.3112 0.93771,-0.71931 0.44169,-0.40072 0.67763,-1.0642 0.23594,-0.66347 -0.13315,-1.4914 -0.29989,-0.67273 -0.85656,-0.94742 -0.55668,-0.27468 -1.1777,0.002 -0.41399,0.18454 -0.69464,0.54892 -0.26997,0.36847 -0.47402,0.8848 -0.20406,0.51633 -0.40054,1.1888 -0.37578,1.2841 -0.8417,2.0678 -0.45852,0.78041 -1.3456,1.1759 -0.74666,0.33285 -1.6162,0.25081 -0.86218,-0.0853 -1.6312,-0.63755 -0.76901,-0.55222 -1.204,-1.5281 -0.18784,-0.42138 -0.264,-0.91027 -0.08025,-0.47821 -0.01834,-0.97548 0.0652,-0.48987 0.28235,-1.0563 -0.24583,-0.0942 -1.0463,-0.10075 l -0.30978,-0.69492 3.7076,-1.0856 0.30978,0.69491 q -0.82219,0.40196 -1.3081,0.90216 -0.48596,0.50021 -0.66534,1.0321 -0.17938,0.53192 -0.14679,1.0225 0.03589,0.49798 0.21055,0.88979 0.19443,0.43617 0.54563,0.68725 0.35449,0.25848 0.78024,0.29909 0.43643,0.0447 0.84303,-0.13653 0.4066,-0.18126 0.64788,-0.47491 0.24129,-0.29366 0.42406,-0.73847 0.18606,-0.43741 0.55552,-1.4971 0.4653,-1.3417 0.9256,-1.9989 0.4636,-0.64975 1.1511,-0.95623 0.77623,-0.34602 1.6516,-0.23112 0.87866,0.12229 1.6016,0.65073 0.72626,0.53584 1.0822,1.3342 0.53716,1.205 0.02511,2.6207 0.08631,0.0147 0.22605,0.0499 0.13975,0.0352 0.30167,0.0605 0.16932,0.022 0.46271,0.0241 l 0.30318,0.68013 z"
         style="color:#000000" />
      <path
         id="path74"
         d="m 93.33,206.29 q -0.48318,0.10153 -0.86786,-0.11538 -0.38301,-0.20899 -0.47955,-0.66841 -0.07157,-0.3406 0.07359,-0.59441 0.14683,-0.24589 0.44782,-0.30914 0.17426,-0.0366 0.43313,-0.0248 0.22885,0.0263 0.4031,-0.0103 0.37228,-0.0782 0.44576,-0.35833 0.08306,-0.27384 0.03312,-0.51147 -0.14647,-0.69705 -1.0334,-1.1392 -0.87899,-0.44387 -1.9836,-0.58393 -1.095,-0.13381 -1.7525,0.004 -0.7208,0.15146 -0.84726,0.53367 -0.12479,0.39014 -0.04822,0.7545 0.1498,0.71288 0.65318,1.2191 0.5113,0.50459 1.0952,0.80369 l 0.17976,0.85546 q -0.96572,-0.38428 -1.86,-1.255 -0.89425,-0.87073 -1.1572,-2.1222 -0.23136,-1.101 0.18868,-1.8178 0.42004,-0.7168 1.3547,-0.91325 1.101,-0.23136 2.3906,0.15928 1.2975,0.389 2.2785,1.3573 0.98884,0.96665 1.2751,2.329 0.10486,0.49902 0.04844,0.8996 -0.05476,0.4085 -0.2358,0.72774 -0.17312,0.31759 -0.44582,0.51549 -0.2727,0.19791 -0.58954,0.26449 z"
         style="color:#000000" />
      <path
         id="path76"
         d="m 90.471,216.86 q -0.95062,-0.51819 -1.5916,-1.2684 -0.64103,-0.75023 -0.6333,-1.6405 0.0058,-0.66368 0.30001,-0.99299 0.30227,-0.32115 0.73933,-0.31735 0.19425,0.002 0.36386,0.0436 0.17764,0.0501 0.57317,0.17495 l 2.0504,0.63296 q 0.6135,0.19149 0.97771,0.19465 0.15378,0.001 0.29186,-0.0541 0.13801,-0.0474 0.21184,-0.16004 0.08185,-0.10451 0.08325,-0.26639 0.0055,-0.6313 -0.99927,-1.4414 -0.99672,-0.80189 -1.8435,-1.1654 -1.6614,-0.69433 -2.049,-0.80292 l -0.5491,-0.15046 0.01672,-1.9263 9.0408,2.8467 q 0.51638,0.19064 0.69444,0.19219 0.28328,0.002 0.37434,-0.23149 0.09909,-0.22577 0.10274,-0.64664 l 0.0021,-0.24281 0.7425,0.24927 q 0.0074,1.9427 0.17065,2.7211 l -0.0048,0.55037 -6.8613,-2.164 q 0.76405,0.56513 1.2461,0.98212 0.48205,0.41699 0.88905,1.0842 0.41504,0.67543 0.40801,1.4848 -0.0051,0.59083 -0.30789,0.96863 -0.29474,0.38597 -0.74798,0.38203 -0.38849,-0.003 -1.3248,-0.31098 l -2.6639,-0.83254 q -0.42777,-0.14132 -0.58964,-0.14272 -0.08903,-7.7e-4 -0.17841,0.0389 -0.08945,0.0478 -0.09043,0.1611 -0.0042,0.48562 1.1631,1.2161 l -0.0072,0.83364 z"
         style="color:#000000" />
      <path
         id="path78"
         d="m 90.296,225.92 q -0.78666,-0.19047 -1.4578,-0.68608 -0.67305,-0.48774 -1.1202,-1.2206 -0.44715,-0.73285 -0.59495,-1.6014 -0.13993,-0.86666 0.08863,-1.8107 0.22285,-0.92039 0.74636,-1.5348 0.53138,-0.61252 1.2698,-0.8418 0.74626,-0.22738 1.5723,-0.0274 1.0541,0.25523 1.8572,1.0659 0.80305,0.81069 1.1197,1.945 0.31473,1.1422 0.03284,2.3064 -0.23428,0.9676 -0.78926,1.5744 -0.54711,0.60871 -1.27,0.80843 -0.72289,0.19972 -1.4545,0.0226 z m 0.9942,-1.733 q 0.7316,0.17713 1.2247,-0.0366 0.49121,-0.20585 0.63787,-0.81158 0.14285,-0.59 -0.18531,-1.1608 -0.32816,-0.5708 -0.92254,-1.0395 -0.58652,-0.46679 -1.225,-0.78792 -0.63057,-0.31923 -1.1183,-0.43732 -0.67653,-0.1638 -1.1835,0.0382 -0.49908,0.20394 -0.63431,0.76247 -0.15047,0.62147 0.16601,1.2061 0.31648,0.58463 0.903,1.0514 0.59248,0.47657 1.2407,0.79174 0.64821,0.31517 1.0966,0.42374 z"
         style="color:#000000" />
      <path
         id="path80"
         d="m 86.224,234.74 q -0.7251,-0.35966 -1.2701,-0.99137 -0.54857,-0.62446 -0.82265,-1.438 -0.27408,-0.81356 -0.22621,-1.6933 0.05512,-0.87615 0.48671,-1.7463 0.4208,-0.84835 1.0672,-1.3318 0.65364,-0.47989 1.4244,-0.54027 0.77806,-0.0568 1.5394,0.32087 0.97163,0.48194 1.5756,1.4501 0.60396,0.96816 0.66201,2.1444 0.05445,1.1835 -0.47784,2.2566 -0.44238,0.89186 -1.1178,1.361 -0.66814,0.4727 -1.4173,0.50767 -0.74917,0.035 -1.4235,-0.29952 z m 1.3527,-1.4703 q 0.67434,0.33448 1.2025,0.23506 0.52457,-0.0922 0.8015,-0.65049 0.26974,-0.54382 0.07589,-1.173 -0.19385,-0.62921 -0.66992,-1.2177 -0.46881,-0.5849 -1.0205,-1.0392 -0.5444,-0.45073 -0.99396,-0.67372 -0.62358,-0.30931 -1.1626,-0.22434 -0.53182,0.0886 -0.78718,0.60339 -0.28413,0.57283 -0.10472,1.213 0.17941,0.64012 0.64822,1.225 0.47247,0.59574 1.035,1.0464 0.5625,0.45067 0.9758,0.65568 z"
         style="color:#000000" />
      <path
         id="path82"
         d="m 87.879,244.59 -5.7772,-7.7998 q -0.42301,-0.58492 -0.55964,-0.68603 -0.1106,-0.0819 -0.21418,-0.078 -0.10358,0.004 -0.16617,0.0885 -0.12519,0.16916 -0.04089,0.69473 0.0843,0.52558 0.34466,0.99014 l -0.4526,0.61157 q -0.36913,-0.76659 -0.55986,-1.7334 -0.19073,-0.96681 0.4015,-1.7671 0.36112,-0.48795 0.84935,-0.58982 0.48992,-0.0906 0.87378,0.19353 0.29928,0.22148 0.83315,0.92873 l 4.1934,5.6811 q 0.41312,0.55748 0.58879,0.68748 0.22771,0.16852 0.43891,0.0328 0.20638,-0.12921 0.58194,-0.63668 l 0.483,0.59911 -0.51519,0.69615 q -0.33222,0.44892 -0.57414,0.84384 -0.24192,0.39492 -0.4012,0.80064 L 87.879,244.5899 Z"
         style="color:#000000" />
    </g>
    <path
       id="path86"
       d="m 48.963,-5.226 c 19.225,0 34.815,15.237 34.815,34.025 0,18.788 -15.591,34.025 -34.815,34.025 -19.225,0 -34.815,-15.237 -34.815,-34.025 0,-18.788 15.591,-34.025 34.815,-34.025 z"
       class="fil0"
       style="clip-rule:evenodd;fill:none;stroke-width:13.94299984;image-rendering:optimizeQuality;shape-rendering:geometricPrecision" />
    <path
       style="clip-rule:evenodd;fill:#aaaac9;fill-opacity:1;fill-rule:evenodd;stroke-width:13.94299984;image-rendering:optimizeQuality;shape-rendering:geometricPrecision"
       id="circle-gf"
       d="m 49.004,-7.788 c 20.224,0 36.718,16.497 36.718,36.725 0,13.892 -7.7836,26.023 -19.211,32.259 -2.9497,-0.27324 -5.9116,-0.47544 -8.8722,-0.60591 13.903,-3.8076 24.174,-16.567 24.174,-31.653 0,-18.077 -14.741,-32.819 -32.81,-32.819 -18.074,0 -32.812,14.742 -32.812,32.819 0,15.128 10.328,27.916 24.291,31.684 -2.9817,0.14278 -5.9396,0.35659 -8.8606,0.64145 -11.494,-6.2156 -19.334,-18.384 -19.334,-32.326 0,-20.228 16.493,-36.725 36.715,-36.725 z"
       class="fil2" />
    <path
       style="clip-rule:evenodd;fill:#f4f3d6;fill-opacity:1;fill-rule:evenodd;stroke-width:13.94299984;image-rendering:optimizeQuality;shape-rendering:geometricPrecision"
       id="text-ck"
       d="m 51.409,13.9 c -2.2576,4.4168 -4.2499,8.8531 -8.6399,11.674 -1.86,1.1953 -3.9884,1.6912 -5.3827,1.6891 -1.7127,-0.0029 -1.9772,-1.9225 -0.43858,-2.4517 -0.38632,1.9242 3.7489,0.14962 4.3142,-0.14536 2.6372,-1.3765 4.4526,-2.9924 5.175,-5.8242 1.1357,-4.0044 0.32222,-8.5796 1.8951,-12.407 0.49037,-1.2903 1.4839,-2.3578 2.3637,-3.4154 0.01317,-0.01287 0.01966,-0.02595 0.02634,-0.03872 0.002,-0.0039 0.0059,-0.0088 0.01101,-0.01464 -2.9175,-0.68396 -3.8829,-1.1814 -6.0431,-1.1814 -7.5796,0 -12.219,5.2988 -12.219,13.081 0,5.1456 2.0973,9.7345 7.8288,7.0765 1.8555,-0.8605 3.1061,-2.4636 3.1061,-4.4956 0,-1.8691 -1.1357,-4.1062 -3.3464,-4.1062 -0.42963,0 -0.71276,0.13966 -1.0188,0.39758 -0.16238,0.13678 -0.41419,0.14242 -0.41419,-0.11349 0,-0.19484 0.20095,-0.42623 0.57982,-0.7386 1.3675,-1.1276 3.1158,-1.7141 4.7131,-0.76268 0.73233,0.43618 1.1477,1.1579 1.3335,1.9981 0.58709,2.6551 -0.68363,5.6527 -2.8134,7.6608 -1.8792,1.772 -4.4359,2.7426 -6.857,2.4702 -3.4058,-0.38317 -6.1895,-3.4936 -6.1895,-9.3377 0,-8.2568 7.1126,-14.115 14.932,-15.483 3.2627,-0.57069 6.1417,0.62239 9.3305,0.62239 0.56311,0 1.0684,-0.08118 1.4992,-0.25953 0.16614,-0.05425 0.46621,-0.20328 0.63353,-0.06083 0.16593,0.14129 0.01297,0.40815 -0.08894,0.53422 -0.80962,1.001 -2.2081,1.6151 -3.3063,2.2597 -0.80903,0.97883 -1.3697,2.0713 -1.6783,3.2801 -0.71004,3.2942 -1.0675,6.7309 -1.3733,10.078 0.90878,-1.7795 1.9145,-3.5257 3.0373,-5.1879 2.0347,-3.0172 4.8609,-6.6511 8.9745,-6.6511 0.80642,0 1.8553,0.25314 1.8553,1.2161 0,0.95079 -1.2868,2.336 -2.0652,2.9315 -0.09749,0.07459 -0.24382,0.15226 -0.35849,0.05061 -0.12744,-0.11349 0.29763,-0.57577 0.29763,-0.80228 0,-0.67268 -0.60082,-1.009 -1.8024,-1.009 -2.2318,0 -3.8046,1.3922 -6.1686,4.6394 1.3587,3.4779 2.398,7.1756 4.1401,10.499 0.54631,1.0343 1.3645,2.4816 2.7398,2.4816 0.44224,0 0.94965,-0.31714 1.2806,-0.51776 -0.61303,1.3131 -2.4296,1.8816 -3.2193,1.9171 -1.2141,0.05464 -1.9407,-0.29732 -2.5442,-1.3388 -1.8339,-3.1658 -2.6239,-6.8752 -4.1002,-10.214 z"
       class="fil2" />
    <path
       id="petals-dark"
       d="m 31.033,28.211 c 0.11475,0.59045 0.70363,1.8866 0.95508,2.6934 4.1264,-0.35319 7.6193,0.89337 9.459,5.1016 0.28108,-1.2279 0.65041,-2.1356 1.2695,-3.2793 -1.2596,-1.4041 -3.5619,-3.7416 -6.8516,-3.4375 -1.6917,0.15637 -3.5456,0.30059 -4.832,-1.0781 z m 35.715,0.13281 c -1.2864,1.3787 -3.0055,1.1017 -4.6973,0.94531 -3.2896,-0.30406 -5.594,2.0334 -6.8535,3.4375 0.61912,1.1437 0.98846,2.0514 1.2695,3.2793 1.8397,-4.2082 5.3326,-5.4548 9.459,-5.1016 0.25144,-0.80676 0.70752,-1.9701 0.82227,-2.5605 z m -40.387,18.602 c 0.40846,1.1699 0.91237,2.0787 1.4297,3.0391 1.4521,2.2269 3.4821,3.3754 6.1699,3.375 3.8683,0.12511 5.3629,-1.2917 9.3477,-0.28125 -2.2744,-1.0634 -5.0899,-2.676 -7.8145,-3.209 -1.2149,-0.21483 -1.9854,-0.16415 -2.8145,-1.0449 -1.2332,0.32836 -2.2665,0.70942 -3.8379,0.23047 -1.2103,-0.71294 -1.7633,-1.2731 -2.4805,-2.1094 z m 45.191,0 c -0.71719,0.83623 -1.2702,1.3964 -2.4805,2.1094 -1.5714,0.47895 -2.6047,0.09787 -3.8379,-0.23047 -0.829,0.88077 -1.5996,0.8301 -2.8145,1.0449 -2.7245,0.53298 -5.5401,2.1456 -7.8145,3.209 3.9848,-1.0105 5.4793,0.40636 9.3477,0.28125 2.6879,4.42e-4 4.7198,-1.1481 6.1719,-3.375 0.51732,-0.96034 1.0193,-1.8691 1.4277,-3.0391 z"
       style="clip-rule:evenodd;fill:#aaaac9;fill-rule:evenodd;stroke-width:13.94299984;image-rendering:optimizeQuality;shape-rendering:geometricPrecision" />
    <path
       id="petals-light"
       d="m 48.962,25.238 c -4.42e-4,4.33e-4 -9.83e-4,9.83e-4 -9.83e-4,0.002 -9.83e-4,0.002 -0.002,0.0039 -0.0039,0.0069 -9.83e-4,-0.002 -0.002,-0.0039 -0.0039,-0.0069 -2.85e-4,-8.75e-4 -8.75e-4,-0.002 -9.83e-4,-0.002 -8.74e-4,-8.74e-4 -9.83e-4,-0.0029 -0.002,-0.002 -8.75e-4,-9.83e-4 -9.83e-4,7.27e-4 -0.002,0.002 -4.32e-4,4.33e-4 -9.83e-4,9.83e-4 -9.83e-4,0.002 -0.98712,1.7514 -1.9674,3.2206 -3.1017,4.7696 -3.9937,5.4531 -5.0971,10.6 -2.2878,16.985 0.31383,0.66757 -1.0505,1.1144 -1.327,0.23955 -2.2901,-4.725 -1.6983,-7.1225 -1.2713,-9.8455 -2.1028,-4.0293 -4.1951,-5.4885 -8.8624,-5.2604 -3.2983,0.16113 -4.7812,0.61797 -9.0606,-1.034 1.3424,1.9236 3.3915,3.3454 5.8739,4.5393 3.6354,3.2831 2.5497,5.2055 2.6718,7.0444 -0.13706,1.5053 -0.02634,2.6196 0.18761,3.6544 0.08914,0.43031 0.19563,0.7758 0.48572,1.1251 0.47475,0.57147 0.91773,0.99785 1.4629,1.1264 0.57952,0.07882 1.1428,0.12548 1.7094,0.17815 2.9421,0.27328 5.9693,2.0306 8.4791,3.4676 1.5097,0.76467 3.1674,1.2331 5.0416,1.2685 h 0.004 c 0.002,0 0.0039,0 0.0049,-1.48e-4 0.002,1.48e-4 0.0039,1.48e-4 0.0049,1.48e-4 h 0.004 c 1.8743,-0.03538 3.5319,-0.50383 5.0416,-1.2685 2.5097,-1.437 5.537,-3.1943 8.4791,-3.4676 0.56658,-0.05268 1.1299,-0.09941 1.7094,-0.17815 0.54513,-0.12855 0.98813,-0.55493 1.4629,-1.1264 0.2901,-0.34927 0.39667,-0.69477 0.48572,-1.1251 0.21396,-1.0349 0.32462,-2.1491 0.1876,-3.6544 0.12212,-1.8388 -0.96357,-3.7613 2.6718,-7.0444 2.4824,-1.1938 4.5315,-2.6156 5.8739,-4.5393 -4.2794,1.652 -5.7623,1.1952 -9.0606,1.034 -4.6672,-0.22809 -6.7596,1.231 -8.8624,5.2604 0.42695,2.7231 1.0187,5.1206 -1.2713,9.8455 -0.2765,0.87488 -1.6408,0.42802 -1.327,-0.23955 2.8093,-6.3856 1.706,-11.532 -2.2878,-16.985 -1.1343,-1.549 -2.1146,-3.0183 -3.1017,-4.7696 -2.85e-4,-8.75e-4 -8.65e-4,-0.002 -9.83e-4,-0.002 -8.65e-4,-8.74e-4 -9.83e-4,-0.0029 -0.002,-0.002 -8.74e-4,-9.83e-4 -9.82e-4,7.27e-4 -0.002,0.002 z"
       style="clip-rule:evenodd;fill:#f4f3d6;fill-rule:evenodd;stroke-width:13.94299984;image-rendering:optimizeQuality;shape-rendering:geometricPrecision" />
    <g
       style="clip-rule:evenodd;fill:#1f2464;fill-opacity:1;fill-rule:evenodd;image-rendering:optimizeQuality;shape-rendering:geometricPrecision"
       id="text-facto"
       transform="matrix(3.8818,0,0,3.8818,32.466,25.123)">
      <path
         style="fill:#1f2464;fill-opacity:1"
         id="path96"
         d="m 9.473,11.137 c -0.024051,0.1373 -0.023642,0.27628 -0.047614,0.41312 -0.32256,-0.02999 -0.65223,-0.06676 -0.97719,-0.09628 9.488e-4,-0.01971 0.00194,-0.04033 0.00537,-0.05952 0.089189,0.0098 0.16543,-0.0158 0.17414,-0.10008 l 0.13061,-1.2643 c 0.00457,-0.044177 0.00102,-0.073189 -7.677e-4,-0.086807 -0.010772,-0.080658 -0.062784,-0.12001 -0.15198,-0.13081 0.00399,-0.023783 0.00482,-0.048256 0.006,-0.072614 0.31969,0.027803 0.71743,0.061583 1.0085,0.097776 -0.016165,0.12932 -0.035433,0.25904 -0.049177,0.38882 -0.01485,-0.0019 -0.029764,-0.0038 -0.042142,-0.0052 0.00178,-0.13966 -0.018677,-0.23301 -0.06774,-0.28282 -0.036264,-0.036713 -0.19473,-0.069 -0.30373,-0.082957 -0.0445,-0.00563 -0.089205,-0.010689 -0.13379,-0.015913 -0.022205,-0.00259 -0.034913,0.012638 -0.037295,0.013787 -0.00781,0.00391 -0.014646,0.016776 -0.016724,0.036996 -0.023449,0.22635 -0.049366,0.48826 -0.075193,0.71444 0.099091,0.01074 0.17221,-6.89e-4 0.22096,-0.03516 0.057012,-0.04039 0.09313,-0.12277 0.11656,-0.24835 0.00993,0.0014 0.024846,0.0033 0.039701,0.0051 -0.015638,0.1172 -0.028709,0.23175 -0.041555,0.344 -0.012669,0.11105 -0.023063,0.22072 -0.033181,0.32712 -0.014819,-0.0014 -0.027252,-0.0028 -0.03963,-0.0042 0.0011,-0.12564 -0.020772,-0.20883 -0.070102,-0.25312 -0.033949,-0.03039 -0.10377,-0.05245 -0.20044,-0.06279 -0.017197,0.14954 -0.024823,0.26335 -0.039661,0.4122 -0.013358,0.13385 -0.00574,0.22445 0.02435,0.27225 0.030035,0.04768 0.091095,0.07543 0.18783,0.08433 0.11161,0.01028 0.19426,-9.21e-4 0.24582,-0.03326 0.069067,-0.04326 0.099224,-0.13708 0.12847,-0.27961 0.0099,9.76e-4 0.024772,0.0024 0.03965,0.0038 z"
         class="fil3" />
      <path
         style="fill:#1f2464;fill-opacity:1"
         id="path98"
         d="m 13.306,12.156 c -0.16682,-0.03577 -0.34886,-0.07018 -0.52365,-0.10222 0.0052,-0.01789 0.01103,-0.03524 0.01085,-0.05502 0.09765,0.01445 0.14446,-0.0069 0.15315,-0.06799 0.0065,-0.04542 0.0023,-0.14326 -0.01456,-0.25803 -0.01133,-0.07693 -0.02056,-0.15261 -0.03339,-0.22942 -0.15153,-0.02949 -0.30565,-0.05893 -0.45466,-0.08794 -0.03087,0.06959 -0.06144,0.13882 -0.08997,0.20917 -0.03818,0.09428 -0.06432,0.16446 -0.06935,0.21113 -0.0098,0.09061 0.0537,0.12875 0.12498,0.1522 -0.0058,0.02221 -0.0064,0.04282 -0.0052,0.05697 -0.13241,-0.02499 -0.28011,-0.04803 -0.40497,-0.07071 0.0064,-0.01694 0.01295,-0.03926 0.01571,-0.05744 0.11029,0.0032 0.16544,-0.07539 0.20782,-0.16464 0.07277,-0.15285 0.16388,-0.34212 0.26716,-0.57339 0.1022,-0.22907 0.21621,-0.49764 0.35492,-0.80489 0.02056,0.0049 0.04328,0.0073 0.06635,0.01167 0.03345,0.22421 0.06809,0.44766 0.10274,0.67146 0.03465,0.2235 0.06402,0.44695 0.09771,0.67004 0.02272,0.15019 0.04172,0.25685 0.05047,0.28415 0.02463,0.07657 0.07972,0.11744 0.15165,0.14835 -0.01127,0.02369 -0.01025,0.04199 -0.0078,0.05655 z m -0.42043,-0.79866 c -0.01804,-0.1246 -0.03872,-0.25009 -0.05652,-0.37345 -0.01804,-0.1249 -0.03854,-0.24921 -0.05653,-0.3734 -0.05143,0.1111 -0.09992,0.22185 -0.14902,0.33378 -0.04849,0.11075 -0.09759,0.22226 -0.14638,0.33431 0.13613,0.02559 0.27232,0.05224 0.40844,0.07877 z"
         class="fil3" />
      <path
         style="fill:#1f2464;fill-opacity:1"
         id="path100"
         d="m 12.017,11.491 c -0.02785,0.15712 -0.10026,0.25943 -0.21553,0.31236 -0.08522,0.03912 -0.19248,0.0455 -0.31765,0.02586 -0.41254,-0.06493 -0.61654,-0.09398 -0.60383,-0.09182 0.0037,-0.01874 0.007,-0.03885 0.01071,-0.05812 0.07137,0.01083 0.12475,-0.0059 0.15683,-0.04632 0.02595,-0.03267 0.04576,-0.09148 0.0587,-0.1766 l 0.16339,-1.0747 c 0.01328,-0.08352 0.0093,-0.15428 -0.0068,-0.19303 -0.02011,-0.04884 -0.06746,-0.0805 -0.13875,-0.09281 0.0037,-0.02022 0.0049,-0.04055 0.0086,-0.06077 0.06145,0.0092 0.36716,0.05465 0.49361,0.0739 0.30811,0.05938 0.44371,0.25094 0.39833,0.51483 -0.03099,0.18085 -0.14608,0.32879 -0.34358,0.36532 0.04467,0.01093 0.40956,0.11263 0.33595,0.50195 z m -0.22226,-0.07038 c 0.02504,-0.14649 0.0021,-0.25575 -0.05834,-0.3343 -0.04494,-0.05856 -0.13185,-0.06198 -0.24394,-0.08153 -0.03808,-0.0065 -0.08149,-0.01342 -0.11709,-0.01928 -0.01984,0.12445 -0.03756,0.21016 -0.05579,0.33506 -0.0233,0.15921 -0.03291,0.26082 -0.02482,0.30478 0.01348,0.07287 0.07598,0.11569 0.17764,0.13306 0.17076,0.0291 0.27846,-0.081 0.32235,-0.33779 z m 0.02599,-0.82682 c 0.03704,-0.22239 -0.03592,-0.37877 -0.20642,-0.4106 -0.0355,-0.0066 -0.06098,-0.01113 -0.07646,-0.01328 -0.01232,-0.0017 -0.0214,0.003 -0.02886,0.0108 -0.016,0.0167 -0.02266,0.07228 -0.02623,0.09518 -0.0305,0.1945 -0.06682,0.44471 -0.09576,0.63917 0.03311,0.0054 0.06629,0.01169 0.10183,0.01761 0.09175,0.01542 0.16779,0.002 0.22096,-0.04326 0.05198,-0.04435 0.09,-0.16987 0.11093,-0.29562 z"
         class="fil3" />
      <path
         style="fill:#1f2464;fill-opacity:1"
         id="path102"
         d="M 10.803,11.727 C 10.71151,11.7135 10.61786,11.70186 10.50468,11.68621 10.45266,11.56559 10.40611,11.43682 10.35814,11.31638 10.3099,11.19541 10.2585,11.07304 10.20975,10.95184 10.18677,10.89458 10.16903,10.86549 10.15423,10.8517 10.1396,10.83809 10.11271,10.82464 10.07011,10.81801 c -0.01331,0.11393 -0.02725,0.22873 -0.04234,0.34172 -0.02116,0.15891 -0.02434,0.25288 -0.02168,0.28098 0.0073,0.07483 0.05213,0.12784 0.13987,0.1397 -9.73e-4,0.01943 -0.0045,0.03892 -0.0054,0.05789 -0.16772,-0.02019 -0.33734,-0.04707 -0.52609,-0.06587 0.00345,-0.01949 0.00696,-0.03892 0.00796,-0.05894 0.070311,0.0072 0.12032,-0.01181 0.15051,-0.05481 0.024157,-0.03427 0.039177,-0.09426 0.051996,-0.18078 0.00231,-0.01548 0.0046,-0.04126 0.00892,-0.07686 0.00432,-0.03561 0.00654,-0.06354 0.00928,-0.08408 0.017181,-0.12656 0.030457,-0.25392 0.046878,-0.38059 0.016421,-0.12667 0.029559,-0.25358 0.046827,-0.38071 0.00263,-0.01949 0.00876,-0.04789 0.011724,-0.0835 0.00317,-0.03747 0.0068,-0.064 0.00904,-0.07931 C 9.970373,10.10854 9.967723,10.04744 9.951555,10.0116 9.929185,9.962085 9.882303,9.932758 9.809595,9.922809 9.813145,9.902443 9.814175,9.881962 9.815245,9.860667 l 0.55914,0.071567 c 0.28321,0.043583 0.40887,0.21785 0.36898,0.49656 -0.01814,0.12685 -0.06383,0.22652 -0.13849,0.29663 -0.06829,0.06412 -0.15368,0.09351 -0.24945,0.09118 0.06031,0.15611 0.11946,0.31444 0.186,0.4684 0.09625,0.22285 0.19021,0.35511 0.26945,0.38508 -0.006,0.02106 -0.0086,0.03834 -0.0079,0.05691 z m -0.27688,-1.2953 c 0.02004,-0.14605 0.003,-0.26358 -0.05162,-0.33184 -0.04738,-0.05935 -0.12636,-0.09798 -0.23904,-0.11538 -0.02735,-0.00419 -0.04164,0.00948 -0.05133,0.019551 -0.0088,0.0092 -0.01351,0.03567 -0.01903,0.0778 -0.0147,0.11113 -0.03137,0.22274 -0.04449,0.33416 -0.01317,0.11108 -0.02635,0.22262 -0.04206,0.3337 0.14278,0.02182 0.238,0.01751 0.28804,-0.0057 0.08689,-0.04032 0.13626,-0.14296 0.15954,-0.31228 z"
         class="fil3" />
      <path
         style="fill:#1f2464;fill-opacity:1"
         id="path104"
         d="M 6.3497,9.6537 C 6.268523,9.65257 6.23659,9.681574 6.21588,9.7621 6.203337,9.81086 6.188821,9.88154 6.185207,9.97419 l -0.053079,1.3428 c -0.018736,-8.66e-4 -0.032866,-0.0017 -0.051653,-0.0035 -0.13146,-0.24153 -0.2592,-0.48598 -0.39204,-0.72794 -0.1347,-0.24532 -0.2723,-0.48961 -0.41083,-0.73547 l -0.02076,1.0773 c -0.00126,0.06792 0.00646,0.11289 0.012161,0.13497 0.022898,0.088 0.074441,0.14168 0.16367,0.15716 -0.00219,0.02041 -5.51e-5,0.04026 0.00235,0.05964 -0.13113,-0.0034 -0.26128,-0.0061 -0.39072,-0.0072 0,-0.01943 0,-0.03934 -0.0023,-0.05915 0.086272,-0.01234 0.13541,-0.06489 0.1508,-0.14536 0.00706,-0.03675 0.010461,-0.0835 0.010461,-0.1406 0,-0.38781 0.023335,-0.77643 0.017968,-1.1638 -0.053957,-0.10331 -0.11739,-0.15673 -0.1995,-0.15981 0.0023,-0.020784 0,-0.041508 0,-0.062291 0.11503,0.00757 0.21828,0.011528 0.31222,0.00974 0.25115,0.45227 0.49994,0.90578 0.7465,1.3605 L 6.122632,9.991919 C 6.126962,9.897104 6.113432,9.802239 6.093325,9.754609 6.068786,9.696326 6.018227,9.65568 5.947735,9.635389 5.950915,9.611141 5.951295,9.589712 5.9473492,9.572338 c 0.15464,0.00498 0.2913,0.012937 0.40485,0.01602 -0.00487,0.025382 -0.00455,0.041996 -0.00252,0.065213 z"
         class="fil3" />
      <path
         style="fill:#1f2464;fill-opacity:1"
         id="path106"
         d="M 4.8732,10.422 C 4.87218,10.78541 4.6901,11.29127 4.24933,11.29057 3.80856,11.289865 3.63572,10.79965 3.63402,10.42205 3.63232,10.04445 3.8125,9.53769 4.24961,9.53764 4.68672,9.5375967 4.87423,10.05858 4.8732,10.42199 Z M 4.66013,10.4255 C 4.66266,10.17047 4.611709,9.60912 4.24931,9.60864 c -0.36239,-4.803e-4 -0.40629,0.5696 -0.40239,0.81341 0.00391,0.24381 0.044528,0.80041 0.40251,0.80006 0.35798,-3.42e-4 0.40816,-0.5415 0.4107,-0.79657 z"
         class="fil3" />
      <path
         style="fill:#1f2464;fill-opacity:1"
         id="path108"
         d="M 0.29387,10.107 C 0.277307,10.1087 0.263055,10.1105 0.246559,10.1118 0.229405,9.97296 0.193409,9.887 0.140969,9.85144 0.103359,9.825991 0.020059,9.819357 -0.084141,9.831538 c -0.080354,0.00946 -0.11471,0.036157 -0.11082,0.081614 l 0.06415,0.70007 c 0.020047,0.19955 0.035008,0.39981 0.055488,0.59974 0.010551,0.10326 0.019807,0.10293 0.0475,0.13436 0.029079,0.03306 0.082398,0.04274 0.15555,0.04051 0.004161,0.01947 0.005909,0.03861 0.007717,0.05769 -0.18575,0.01685 -0.37186,0.03513 -0.55467,0.05318 5.4724e-4,-0.01865 -0.003555,-0.03817 -0.005362,-0.05726 0.071075,-0.01196 0.12041,-0.03322 0.14367,-0.0702 0.023441,-0.0373 0.040331,-0.04459 0.030693,-0.14708 -0.037642,-0.3984 -0.084413,-0.90353 -0.1247,-1.3018 -0.005768,-0.058287 -0.059968,-0.060516 -0.10893,-0.055516 -0.074799,0.00767 -0.18862,0.0155 -0.23846,0.078083 -0.036803,0.046272 -0.051016,0.11581 -0.040823,0.25012 -0.014213,0.0023 -0.028409,0.0041 -0.042673,0.0063 -0.012658,-0.13082 -0.02763,-0.2617 -0.040287,-0.39253 0.35978,-0.037736 0.74033,-0.072807 1.1078,-0.1025 0.012618,0.13224 0.017248,0.2685 0.032177,0.40074 z"
         class="fil3" />
      <path
         style="fill:#1f2464;fill-opacity:1"
         id="path110"
         d="m -0.92539,11.517 -0.021299,0.0027 -0.06263,-0.12365 c -0.087228,0.13974 -0.16285,0.21407 -0.32074,0.23452 -0.48007,0.06231 -0.68073,-0.47197 -0.72558,-0.80392 -0.044854,-0.33195 -0.021079,-0.45234 0.073142,-0.64797 0.090972,-0.18205 0.28838,-0.29487 0.43676,-0.31591 0.14837,-0.021043 0.26356,0.017236 0.39334,0.10548 l 0.011394,-0.12484 0.026362,-0.00201 0.060153,0.49486 c -0.014146,0.0023 -0.028291,0.004 -0.040067,0.0058 -0.033075,-0.13887 -0.069291,-0.25001 -0.14513,-0.32679 -0.077378,-0.078464 -0.17875,-0.11022 -0.29889,-0.094067 -0.35168,0.047248 -0.33692,0.61296 -0.30479,0.87531 0.032142,0.26235 0.13732,0.82741 0.50649,0.77749 0.12262,-0.01653 0.19422,-0.08161 0.24034,-0.19928 0.035992,-0.09167 0.067913,-0.28209 0.074957,-0.45734 l 0.028287,-0.0024 0.067913,0.60208 z"
         class="fil3" />
      <path
         style="fill:#1f2464;fill-opacity:1"
         id="path112"
         d="M 8.6551,9.6519 C 8.573439,9.64256 8.49096,9.697081 8.45388,9.80291 l -0.105,0.29946 C 8.171,10.60985 8.00788,11.06428 7.84,11.57497 7.819654,11.574364 7.796311,11.57277 7.778756,11.57217 L 7.390996,9.95057 C 7.340638,9.74 7.298449,9.55981 7.115186,9.53453 V 9.459361 c 0.21137,0.011969 0.42579,0.028842 0.639,0.042898 -0.00252,0.025614 -0.00313,0.050287 -0.00313,0.074898 -0.14141,-0.016272 -0.19735,0.020638 -0.16992,0.14489 l 0.32018,1.4454 0.38047,-1.1139 C 8.326428,9.922777 8.334597,9.836387 8.337251,9.782127 8.340311,9.71745 8.325408,9.671867 8.287641,9.645577 8.267295,9.631459 8.227212,9.614786 8.171751,9.60927 c 0.00293,-0.024067 0.00293,-0.048205 0.00293,-0.073484 0.16897,0.015531 0.33127,0.027295 0.48588,0.043165 -0.00578,0.024807 -0.00544,0.048878 -0.00544,0.073012 z"
         class="fil3" />
      <path
         style="fill:#1f2464;fill-opacity:1"
         id="path114"
         d="M 3.6006,9.4858 C 3.40944,9.519509 3.41031,9.71324 3.4129,9.87528 l 0.025193,1.5848 c -0.018988,-10e-4 -0.03489,-0.0014 -0.053898,-0.0019 -0.15794,-0.27758 -0.3126,-0.55496 -0.47385,-0.83052 -0.16024,-0.27382 -0.32454,-0.54437 -0.48815,-0.81474 l 0.048071,1.2518 c 0.0055,0.14374 0.017445,0.29994 0.19834,0.31924 -4.528e-4,0.02362 0.00117,0.04417 0.00359,0.06723 -0.15234,1.89e-4 -0.30167,0.0063 -0.44898,0.01604 8.543e-4,-0.0225 -0.00126,-0.04343 -0.00314,-0.06585 0.16895,-0.03503 0.19389,-0.19706 0.18833,-0.33929 L 2.355086,9.71829 C 2.294165,9.60438 2.208516,9.53007 2.113316,9.53364 2.1129459,9.515093 2.1139577,9.488463 2.110586,9.462085 c 0.13046,-0.0084 0.2463,-0.014476 0.36237,-0.01648 0.14539,0.25094 0.31478,0.51586 0.46118,0.77006 0.14658,0.25464 0.29577,0.51216 0.44367,0.76875 -0.00413,-0.36993 -0.00939,-0.73986 -0.014858,-1.1097 -0.00719,-0.1678 -0.01477,-0.33359 -0.21139,-0.37469 0.00352,-0.029008 0.00202,-0.047996 5.91e-5,-0.071555 0.14063,-0.00394 0.31976,-0.0099 0.44614,-0.00965 -9.292e-4,0.024437 -4.252e-4,0.042858 0.00284,0.066984 z"
         class="fil3" />
      <path
         style="fill:#1f2464;fill-opacity:1"
         id="path116"
         d="m -3.5307,10.534 c -0.015555,0.0031 -0.037256,-0.01115 -0.04963,-0.0085 -0.068216,-0.16193 -0.14606,-0.25763 -0.22947,-0.28792 -0.12458,-0.04087 -0.29212,0.0082 -0.42154,0.03504 -0.031906,0.0064 -0.049772,0.02267 -0.055921,0.04407 -0.00615,0.02184 5.039e-4,0.06687 0.01548,0.13689 l 0.12298,0.69063 c 0.11466,-0.01832 0.21016,-0.05381 0.25219,-0.10537 0.050929,-0.06265 0.06511,-0.16359 0.046516,-0.30566 0.015484,-0.0026 0.034075,-0.0052 0.05274,-0.0083 0.024161,0.1299 0.04102,0.25993 0.065035,0.38977 0.022933,0.12394 0.053752,0.24815 0.076831,0.37209 -0.018594,0.0031 -0.037185,0.0058 -0.049555,0.0089 -0.04652,-0.13848 -0.08674,-0.224 -0.16053,-0.25564 -0.043839,-0.01877 -0.14244,-0.01922 -0.26333,1.93e-4 l 0.070248,0.39387 c 0.00593,0.03356 0.049555,0.26915 0.058091,0.29158 0.04948,0.12894 0.17109,0.12868 0.30109,0.11677 -4.331e-4,0.02242 0.00499,0.04215 0.012374,0.0663 -0.21942,0.03664 -0.46929,0.0809 -0.69442,0.12644 -0.00311,-0.02191 -0.00933,-0.04433 -0.01548,-0.0663 0.10728,-0.02229 0.18397,-0.08442 0.16516,-0.18819 l -0.26239,-1.4433 c -0.00998,-0.05547 -0.027055,-0.08929 -0.03487,-0.10358 -0.046153,-0.08468 -0.11828,-0.12126 -0.22984,-0.10146 -0.00311,-0.02345 -0.0094,-0.04644 -0.012512,-0.07001 0.26666,-0.04714 0.63626,-0.12561 1.1136,-0.19915 0.046591,0.15149 0.086815,0.31937 0.12718,0.47092 z"
         class="fil3" />
      <path
         style="fill:#1f2464;fill-opacity:1"
         id="path118"
         d="m -2.1022,11.7 c -0.1661,0.02474 -0.32471,0.04481 -0.48184,0.07015 -0.00237,-0.01865 -0.00468,-0.03725 -0.00704,-0.05633 0.082496,-0.01865 0.13054,-0.06068 0.11084,-0.11842 -0.053988,-0.15785 -0.11486,-0.29482 -0.17479,-0.43863 -0.1361,0.02126 -0.27496,0.04263 -0.41689,0.06405 -0.012,0.12859 -0.02939,0.25822 -0.026528,0.38763 5.512e-4,0.02506 0.00226,0.04622 0.00528,0.0634 0.01761,0.09809 0.073638,0.09592 0.15564,0.09396 0,0.01865 0.00143,0.03762 0.0071,0.05589 -0.11843,0.02023 -0.2334,0.03562 -0.35487,0.05693 0,-0.01734 -0.00446,-0.03708 -0.00946,-0.05584 0.099449,-0.03257 0.11909,-0.11484 0.12851,-0.20858 l 0.1492,-1.5258 0.058996,-0.01022 c 0.31431,0.72905 0.43148,1.0403 0.6689,1.4653 0.03737,0.06694 0.10198,0.09787 0.17512,0.09923 0.00468,0.01903 0.00704,0.03812 0.011835,0.05726 z m -0.58816,-0.61997 -0.30611,-0.67674 -0.068409,0.73231 c 0.12487,-0.01849 0.24969,-0.03703 0.37452,-0.05557 z"
         class="fil3" />
      <path
         style="fill:#1f2464;fill-opacity:1"
         id="path120"
         d="M 1.7841,10.48 C 1.807226,10.84268 1.65917,11.35952 1.21932,11.38811 0.77947,11.416701 0.57444,10.93906 0.54765,10.56241 0.520863,10.18576 0.66697,9.66814 1.1031,9.63905 1.53924,9.609959 1.76096,10.11733 1.78409,10.48 Z M 1.57173,10.4977 C 1.557309,10.24302 1.46916,9.68629 1.10754,9.7099 0.74591,9.733506 0.74,10.30525 0.7601,10.54825 c 0.020098,0.24301 0.097618,0.79568 0.45478,0.77155 0.35717,-0.02413 0.37128,-0.56742 0.35685,-0.8221 z"
         class="fil3" />
    </g>
    <path
       style="clip-rule:evenodd;opacity:1;fill:url(#linearGradient995);fill-opacity:1;fill-rule:nonzero;stroke-width:13.94299984;image-rendering:optimizeQuality;shape-rendering:geometricPrecision"
       id="banner-fg"
       d="m 14.483,76.512 c 1.0638,-0.11642 1.7426,-0.16571 2.1712,-0.09386 -0.45816,0.25069 -1.3482,0.4455 -1.9186,0.57039 -1.5745,0.25488 -2.9955,0.54503 -4.5873,0.80977 -1.3698,0.22722 -2.7063,0.32673 -4.0015,0.52624 l 1.9012,-5.3409 -4.2371,-3.7879 c 5.2195,-0.7621 6.6486,-0.11878 8.1545,6.9478 l -1.9889,-9.0148 c -0.76049,0.12354 -1.4783,0.2779 -2.1148,0.37039 -1.8045,0.26242 -3.4856,0.43562 -4.3733,0.55581 -1.6149,0.21922 -1.9092,0.33753 -2.3026,0.52576 l 5.5337,4.8183 -2.4472,6.6008 c 1.1074,-0.56285 3.4123,-0.57504 6.1374,-1.0342 2.8143,-0.47367 5.9483,-0.9816 6.4684,-1.3562 0.33988,-0.24458 0.45865,-0.51638 0.40184,-0.72246 l -0.01169,-0.04039 9.82e-4,0.0029 -0.54876,-2.4608 c 0.79241,-0.13609 1.5848,-0.26616 2.3655,-0.39761 19.839,-3.3443 39.999,-3.3443 59.838,0 0.78161,0.1319 1.5712,0.26101 2.365,0.39808 l -0.54266,2.4355 c -0.0069,0.01966 -0.0113,0.04088 -0.01592,0.06191 -0.05671,0.20607 0.06192,0.47788 0.40184,0.72246 0.52014,0.37461 3.6541,0.88254 6.4684,1.3562 2.7251,0.45911 5.03,0.47131 6.1374,1.0342 l -2.4472,-6.6007 5.5337,-4.8183 c -0.39339,-0.18823 -0.68773,-0.30654 -2.3026,-0.52577 -0.88771,-0.12018 -2.5688,-0.29339 -4.3733,-0.5558 -0.63656,-0.09248 -1.3543,-0.24692 -2.1148,-0.3704 l -1.9894,9.0151 c 2.1584,-9.3199 3.7666,-7.3291 8.1551,-6.9481 l -4.2371,3.7879 1.9012,5.3408 c -1.2952,-0.1995 -2.6317,-0.29903 -4.0015,-0.52624 -1.5919,-0.26475 -3.0129,-0.55488 -4.5874,-0.80977 -0.57085,-0.12487 -1.4609,-0.31969 -1.9191,-0.57038 0.42859,-0.07086 1.1088,-0.0226 2.1716,0.09386 0.53704,0.05916 2.3646,0.34268 2.5171,-0.36805 l 0.25819,-1.2027 c 0.05022,-0.25022 -0.09248,-0.56381 -0.51263,-0.76613 -0.29622,-0.1427 -0.87551,-0.28682 -1.2393,-0.36944 -0.38353,-0.08727 -0.78913,-0.18168 -1.1811,-0.24551 -1.3074,-0.24554 -2.6171,-0.45959 -3.9405,-0.68068 -20.24,-3.3828 -40.608,-3.3828 -60.849,0 -1.3233,0.2211 -2.6331,0.43516 -3.9405,0.68068 -0.39198,0.06388 -0.79757,0.15819 -1.1811,0.24551 -0.36382,0.08265 -0.9431,0.22674 -1.2393,0.36944 -0.42015,0.20232 -0.56287,0.51592 -0.51263,0.76613 l 0.25819,1.2027 c 0.15256,0.71073 1.9801,0.4272 2.5171,0.36805 z M 81.36,74.4014 c 1.1609,0.20045 2.3275,0.4192 3.4734,0.69664 0.19577,0.04737 0.51452,0.13288 0.77927,0.2812 -0.54454,0.08118 -1.3332,0.0088 -2.1064,-0.06005 -0.90087,-0.08118 -1.8219,-0.21126 -2.2636,0.04835 l -0.08079,0.05966 c 0.0972,-0.48446 0.15913,-0.81026 0.19809,-1.0257 z m -64.711,0 c 0.03843,0.21548 0.10331,0.54127 0.20044,1.0257 l -0.08069,-0.05965 c -0.44174,-0.25961 -1.3628,-0.12953 -2.2636,-0.04835 -0.77316,0.06899 -1.5618,0.1413 -2.1064,0.06005 0.26475,-0.14834 0.5835,-0.23378 0.77926,-0.2812 1.1464,-0.27743 2.3101,-0.4957 3.471,-0.69664 z m 69.258,-11.11 c 0.86141,0.18026 1.8928,0.34035 2.404,0.70509 0.23519,0.16761 0.33424,0.4305 0.29433,0.6361 l -0.95155,4.1559 -1.3501,6.153 c 0.02998,-0.13804 0.03803,-0.32956 0.08413,-0.5624 0.30701,-1.5548 1.3736,-6.5092 1.7951,-8.0344 0.09759,-0.35253 0.12354,-0.58117 0.12019,-0.59289 0.11977,-0.56192 -0.52532,-0.7619 -0.91775,-0.90084 -0.57841,-0.20469 -1.8328,-0.4164 -2.3102,-0.51499 -1.0398,-0.19716 -2.5368,-0.44832 -3.6043,-0.61684 -3.7189,-0.58633 -7.1857,-1.1365 -10.909,-1.582 -14.251,-1.7017 -28.861,-1.7017 -43.112,0 -3.7231,0.4455 -7.1899,0.9957 -10.909,1.582 -1.0675,0.16852 -2.5645,0.41968 -3.6043,0.61684 -0.47743,0.09857 -1.7318,0.31029 -2.3101,0.51497 -0.39245,0.13901 -1.0375,0.33894 -0.91775,0.90084 -0.00295,0.01169 0.022604,0.24037 0.12018,0.5929 0.42156,1.5252 1.4881,6.4797 1.7951,8.0344 0.04599,0.23283 0.05395,0.42437 0.08403,0.56239 l -1.3502,-6.1529 -0.95156,-4.1559 c -0.039901,-0.20561 0.059163,-0.46848 0.29433,-0.6361 0.51122,-0.36475 1.5426,-0.52482 2.404,-0.7051 1.3806,-0.2887 2.7847,-0.48541 4.1743,-0.72624 3.5555,-0.61824 7.2956,-1.1792 10.946,-1.59 14.491,-1.6318 29.07,-1.6318 43.561,0 3.6508,0.41075 7.3909,0.97174 10.946,1.59 1.3895,0.24083 2.7936,0.43753 4.1743,0.72624 z"
       class="fil4" />
  </g>
</svg>
