<?xml version="1.0" encoding="UTF-8" standalone="no"?>
<svg
   xmlns:dc="http://purl.org/dc/elements/1.1/"
   xmlns:cc="http://creativecommons.org/ns#"
   xmlns:rdf="http://www.w3.org/1999/02/22-rdf-syntax-ns#"
   xmlns:svg="http://www.w3.org/2000/svg"
   xmlns="http://www.w3.org/2000/svg"
   xml:space="preserve"
   width="1280"
   height="430"
   version="1.1"
   style="clip-rule:evenodd;fill-rule:evenodd;image-rendering:optimizeQuality;shape-rendering:geometricPrecision;text-rendering:geometricPrecision"
   viewBox="0 0 13333.333 4479.1667"
   id="svg590"><metadata
   id="metadata594"><rdf:RDF><cc:Work
       rdf:about=""><dc:format>image/svg+xml</dc:format><dc:type
         rdf:resource="http://purl.org/dc/dcmitype/StillImage" /><dc:title></dc:title></cc:Work></rdf:RDF></metadata>
 <defs
   id="defs101">
  <style
   type="text/css"
   id="style2">
   <![CDATA[
    .fil11 {fill:none}
    .fil2 {fill:#F5F2DF}
    .fil9 {fill:#D1D7DE}
    .fil1 {fill:#BBBDD6}
    .fil0 {fill:#303366}
    .fil16 {fill:#01652A}
    .fil13 {fill:#02178A}
    .fil4 {fill:#28166F}
    .fil20 {fill:#56473E}
    .fil26 {fill:#8F904E}
    .fil23 {fill:#97C558}
    .fil14 {fill:#B20029}
    .fil24 {fill:#B3ACA8}
    .fil22 {fill:#BDAD5A}
    .fil6 {fill:#C96724}
    .fil27 {fill:#D0CCCA}
    .fil25 {fill:#D5D49D}
    .fil21 {fill:#D5E26E}
    .fil5 {fill:#E9823C}
    .fil12 {fill:#F0D7AE}
    .fil18 {fill:#FDFBE8}
    .fil15 {fill:#FF6E2B}
    .fil17 {fill:#FFFD5B}
    .fil19 {fill:white}
    .fil10 {fill:#303366;fill-rule:nonzero}
    .fil7 {fill:url(#id0)}
    .fil3 {fill:url(#id1)}
    .fil8 {fill:url(#id2)}
   ]]>
  </style>
  <linearGradient
   id="id0"
   gradientUnits="userSpaceOnUse"
   x1="2947.72"
   y1="4123.54"
   x2="3249.4199"
   y2="3856.22">
   <stop
   offset="0"
   style="stop-opacity:1; stop-color:#F58634"
   id="stop4" />
   <stop
   offset="0.0117647"
   style="stop-opacity:1; stop-color:#E87F19"
   id="stop6" />
   <stop
   offset="0.109804"
   style="stop-opacity:1; stop-color:#FFF212"
   id="stop8" />
   <stop
   offset="0.121569"
   style="stop-opacity:1; stop-color:#FEFEFE"
   id="stop10" />
   <stop
   offset="0.168627"
   style="stop-opacity:1; stop-color:#EE9814"
   id="stop12" />
   <stop
   offset="0.2"
   style="stop-opacity:1; stop-color:#F09F00"
   id="stop14" />
   <stop
   offset="0.290196"
   style="stop-opacity:1; stop-color:#FEFEFE"
   id="stop16" />
   <stop
   offset="0.368627"
   style="stop-opacity:1; stop-color:#F2AA00"
   id="stop18" />
   <stop
   offset="0.458824"
   style="stop-opacity:1; stop-color:#F7BF00"
   id="stop20" />
   <stop
   offset="0.580392"
   style="stop-opacity:1; stop-color:#E77817"
   id="stop22" />
   <stop
   offset="0.658824"
   style="stop-opacity:1; stop-color:#F9C600"
   id="stop24" />
   <stop
   offset="0.721569"
   style="stop-opacity:1; stop-color:#FCD600"
   id="stop26" />
   <stop
   offset="0.839216"
   style="stop-opacity:1; stop-color:white"
   id="stop28" />
   <stop
   offset="0.890196"
   style="stop-opacity:1; stop-color:#FDE000"
   id="stop30" />
   <stop
   offset="0.941176"
   style="stop-opacity:1; stop-color:#FFE900"
   id="stop32" />
   <stop
   offset="1"
   style="stop-opacity:1; stop-color:#FFF500"
   id="stop34" />
   <stop
   offset="1"
   style="stop-opacity:1; stop-color:#FFF500"
   id="stop36" />
  </linearGradient>
  <linearGradient
   id="id1"
   gradientUnits="userSpaceOnUse"
   x1="5097.1401"
   y1="3989.8799"
   x2="5549.98"
   y2="3989.8799">
   <stop
   offset="0"
   style="stop-opacity:1; stop-color:#D27127"
   id="stop39" />
   <stop
   offset="0.0392157"
   style="stop-opacity:1; stop-color:#E87F19"
   id="stop41" />
   <stop
   offset="0.25098"
   style="stop-opacity:1; stop-color:#F9C600"
   id="stop43" />
   <stop
   offset="0.329412"
   style="stop-opacity:1; stop-color:#ED9418"
   id="stop45" />
   <stop
   offset="0.388235"
   style="stop-opacity:1; stop-color:#EE9814"
   id="stop47" />
   <stop
   offset="0.431373"
   style="stop-opacity:1; stop-color:#FFFB9C"
   id="stop49" />
   <stop
   offset="0.490196"
   style="stop-opacity:1; stop-color:#F09F00"
   id="stop51" />
   <stop
   offset="0.580392"
   style="stop-opacity:1; stop-color:#FFE900"
   id="stop53" />
   <stop
   offset="0.619608"
   style="stop-opacity:1; stop-color:#F2AA00"
   id="stop55" />
   <stop
   offset="0.74902"
   style="stop-opacity:1; stop-color:#F7BF00"
   id="stop57" />
   <stop
   offset="0.819608"
   style="stop-opacity:1; stop-color:#FFFB9C"
   id="stop59" />
   <stop
   offset="0.901961"
   style="stop-opacity:1; stop-color:#E77817"
   id="stop61" />
   <stop
   offset="1"
   style="stop-opacity:1; stop-color:#FFF500"
   id="stop63" />
   <stop
   offset="1"
   style="stop-opacity:1; stop-color:#FFF500"
   id="stop65" />
  </linearGradient>
  <linearGradient
   id="id2"
   gradientUnits="userSpaceOnUse"
   x1="4087.9199"
   y1="4234.7598"
   x2="4334.3999"
   y2="3406.1201">
   <stop
   offset="0"
   style="stop-opacity:1; stop-color:#E77817"
   id="stop68" />
   <stop
   offset="0.0117647"
   style="stop-opacity:1; stop-color:#E87F19"
   id="stop70" />
   <stop
   offset="0.0196078"
   style="stop-opacity:1; stop-color:#ED9418"
   id="stop72" />
   <stop
   offset="0.219608"
   style="stop-opacity:1; stop-color:#FFFB9C"
   id="stop74" />
   <stop
   offset="0.329412"
   style="stop-opacity:1; stop-color:#EE9814"
   id="stop76" />
   <stop
   offset="0.368627"
   style="stop-opacity:1; stop-color:#F09F00"
   id="stop78" />
   <stop
   offset="0.431373"
   style="stop-opacity:1; stop-color:#FFFCC8"
   id="stop80" />
   <stop
   offset="0.478431"
   style="stop-opacity:1; stop-color:#F2AA00"
   id="stop82" />
   <stop
   offset="0.611765"
   style="stop-opacity:1; stop-color:#F7BF00"
   id="stop84" />
   <stop
   offset="0.709804"
   style="stop-opacity:1; stop-color:#E77817"
   id="stop86" />
   <stop
   offset="0.74902"
   style="stop-opacity:1; stop-color:#FFFCC8"
   id="stop88" />
   <stop
   offset="0.8"
   style="stop-opacity:1; stop-color:#F9C600"
   id="stop90" />
   <stop
   offset="0.901961"
   style="stop-opacity:1; stop-color:#FCD600"
   id="stop92" />
   <stop
   offset="0.941176"
   style="stop-opacity:1; stop-color:#FDE000"
   id="stop94" />
   <stop
   offset="1"
   style="stop-opacity:1; stop-color:#EF9A48"
   id="stop96" />
   <stop
   offset="1"
   style="stop-opacity:1; stop-color:#EF9A48"
   id="stop98" />
  </linearGradient>


    </defs>
 <g
   transform="matrix(2.1029392,0,0,2.1000474,-1692.6591,-4500.0718)"
   id="g5094"><path
     style="fill:#02178a"
     id="path176"
     d="m 6227.9016,2428.4219 c 7,10 24,23 34,29 -1,12 -4,6 -6,22 -3,40 18,44 14,63 -1,3 -1,2 -3,4 -6,-3 -4,-6 -9,-17 -3,-8 -7,-13 -12,-16 -24,-20 -53,0 -90,-12 -21,-6 -23,-17 -33,-18 -5,5 -5,13 -7,21 -2,9 -5,11 -6,22 -2,26 -15,61 -32,78 -7,7 -21,19 -37,17 -5,-4 -22,-32 -23,-39 -4,-6 1,-3 -6,-5 -12,11 -21,26 -32,40 -27,34 -63,94 -81,137 -13,32 -30,73 -39,104 -2,6 -2,10 -4,15 -2,6 -3,6 -4,13 -3,13 -6,16 -7,29 -2,11 -12,44 -14,60 -1,12 -5,17 -6,29 -1,18 -4,17 -6,29 -2,10 -1,23 -2,33 -3,17 -4,5 -5,34 -1,31 -7,28 -8,65 0,11 1,24 0,35 -1,11 0,26 -1,36 -2,16 -3,0 -3,32 l 4,175 c 1,30 0,24 5,49 4,15 2,32 6,50 3,12 2,21 3,33 1,10 6,17 7,29 1,16 5,17 7,30 l 13,58 c 2,7 4,8 5,13 4,12 2,15 13,43 17,45 19,54 43,101 33,65 72,118 122,168 67,69 123,106 218,144 5,2 22,7 27,8 12,3 18,8 30,8 v -13 c -1,-9 -1,-18 -2,-27 -6,-23 -8,-43 -16,-69 -10,-34 -17,-51 -33,-83 -14,-28 -27,-49 -42,-74 -8,-11 -15,-24 -23,-34 -8,-12 -16,-22 -24,-35 -8,-11 -17,-24 -24,-33 l -90,-143 c -21,-13 -27,-8 -71,-44 -6,-6 -9,-9 -15,-14 -7,-6 -11,-8 -17,-13 0,-10 9,-23 -5,-43 -10,-14 -17,-16 -18,-38 -12,-7 -11,-9 -28,-9 -12,-1 -31,2 -40,-2 l -2,-3 c -3,-14 5,-1 5,-30 2,-56 -6,-79 -6,-115 v -58 c 1,-6 4,-9 5,-16 4,-16 22,-50 30,-50 8,1 12,7 19,12 17,13 51,31 72,20 6,-2 10,-14 13,-19 20,-46 55,-104 79,-145 9,-15 46,-67 56,-72 15,0 28,13 44,13 29,1 26,-3 45,-14 81,-49 172,-97 244,-160 12,-11 16,-14 28,-28 18,-22 34,-43 42,-74 19,-72 -40,-126 -73,-152 3,-14 22,-27 34,-35 30,-18 83,-22 95,-75 5,-20 -1,-27 4,-31 9,-6 54,7 79,-12 5,-22 -8,-22 -36,-32 -8,-3 -4,-3 -13,-5 -7,-1 -7,0 -13,-3 -10,-4 -52,-12 -54,-12 -7,-4 -45,-9 -57,-11 -20,-3 -107,-1 -133,-1 -22,0 -17,3 -26,6 -11,3 -22,-1 -32,3 -5,1 -9,3 -12,4 -6,1 -10,0 -15,2 l -26,8 c -17,5 -23,3 -23,10 z"
     class="fil13" /><path
     style="fill:#ff6e2b"
     id="path182"
     d="m 3155.9016,3167.4219 c -1,-12 3,-19 4,-31 1,-6 1,-12 2,-17 0,-2 0,-6 0,-8 l 2,-7 c 9,3 13,20 22,40 13,27 43,71 61,97 5,6 11,12 13,19 -8,4 -21,2 -30,7 8,0 14,-1 20,-3 10,-2 9,-3 16,2 -1,-6 0,-5 5,-8 9,-5 17,-4 23,-6 5,-2 5,-3 10,-5 39,-12 80,-39 109,-67 25,-25 59,-70 73,-102 l 10,-21 c 3,-8 8,-13 10,-21 l -6,-2 c -5,11 -81,65 -93,73 -35,23 -60,39 -81,-20 -13,-35 -41,-98 -56,-130 -9,-17 -30,-70 -35,-90 -2,-6 -1,-11 -4,-18 -3,-4 -5,-4 -4,-14 23,-1 49,-1 65,9 1,9 -1,21 2,28 17,1 13,-12 46,1 21,9 81,17 108,13 9,-2 18,-4 28,-6 l 39,-14 c 7,-2 4,-3 10,-5 2,-2 1,-1 3,-3 l 3,-3 c 3,-4 0,-56 0,-64 l -6,-59 c -4,-12 -6,-10 -7,-26 -1,-14 -20,-70 -21,-77 h 15 c -5,-2 -9,-2 -13,-3 -8,-3 -2,0 -7,-7 v 7 c -5,0 -23,-3 -30,-4 -21,-1 -53,1 -71,-1 -10,-1 -21,-5 -29,-5 -5,2 -23,43 -78,18 1,-15 27,-65 34,-83 6,-12 13,-26 19,-38 l 19,-41 c -3,-4 1,0 -3,-4 -6,-4 -7,-4 -16,-4 -10,23 -31,60 -42,86 l -35,73 c -11,23 -35,4 -40,-2 -3,-2 -7,-7 -9,-12 -3,-8 -2,-18 -3,-19 -11,-4 -27,-1 -39,-2 -3,0 -28,-7 -32,-8 -11,-5 -20,-9 -32,-11 -6,-1 -25,-7 -31,-9 1,-9 12,-20 12,-30 2,-10 0,-29 0,-40 0,-25 -8,-50 -5,-74 -1,0 -1,-2 -1,-1 -2,3 -1,-2 -5,-7 -18,-1 -161,0 -166,4 -5,5 -2,193 -2,215 v 544 c 0,27 -3,89 1,109 18,2 228,0 235,-3 4,-2 4,-22 4,-27 -1,-11 0,-18 1,-28 1,-15 6,-23 6,-41 0,-11 -1,-11 2,-14 z"
     class="fil15" /><path
     style="fill:#ff6e2b"
     id="path186"
     d="m 3299.9016,4214.4219 c -2,-16 0,-44 0,-63 0,-20 2,-39 2,-60 0,-21 -2,-41 -2,-61 0,-21 0,-72 -3,-92 -3,-11 -4,-12 -5,-27 -1,-27 -12,-77 -25,-101 -10,-20 -18,-54 -21,-75 -1,-10 -5,-15 -7,-25 -1,-10 -4,-19 -5,-26 l -22,-105 c -1,-5 -3,-8 -4,-12 0,-6 0,-9 -2,-15 l -24,-70 c -2,-5 -2,-8 -3,-13 -1,-4 -3,-7 -5,-11 -1,-4 -1,-8 -3,-12 l -11,-36 c -3,-13 -9,-45 -9,-57 15,0 42,3 55,0 l -52,-2 c -4,-10 2,-9 -7,-15 5,19 12,17 -44,17 h -195 c -4,14 -1,243 -1,277 0,105 -1,209 1,313 0,5 0,12 0,18 1,12 2,7 5,14 5,12 -1,52 3,66 2,6 3,4 4,13 2,16 4,21 14,39 15,33 43,56 75,64 11,3 13,5 26,7 14,2 14,5 31,6 l 139,2 c 4,16 -2,54 3,64 4,4 53,2 67,2 40,0 13,-9 25,-24 z"
     class="fil15" /><path
     style="fill:#01652a"
     id="path188"
     d="m 4008.9016,3387.4219 c -4,5 -4,6 -5,14 4,44 -6,52 -8,78 h 154 c 4,-17 30,-99 55,-87 13,6 14,32 27,55 40,-3 67,-111 93,-131 21,8 60,100 70,122 l 22,41 h 173 c -1,-12 -2,-15 -6,-25 -2,-11 -2,-19 -2,-30 -3,-23 -12,-20 14,-41 1,-33 -1,-28 -13,-54 -5,-14 -10,-27 -17,-42 l -28,-65 c -3,-7 -7,-15 -9,-22 -5,-15 -13,-28 -19,-44 l -147,-344 c -3,-8 -6,-14 -10,-22 l -40,-96 c -3,-6 -3,-6 -9,-7 -3,16 -11,32 -18,45 l -9,23 c -2,5 -3,6 -5,11 l -133,314 c -4,10 -7,14 -10,24 l -28,65 c -7,14 -11,27 -18,43 -3,8 -70,159 -74,175 z"
     class="fil16" /><path
     style="fill:#02178a"
     id="path194"
     d="m 5489.9016,3040.4219 h 35 c 2,-16 2,-13 5,-24 5,-14 9,-35 14,-48 1,-5 6,-19 7,-23 l 23,-67 c 43,-99 60,-136 118,-221 25,-37 79,-100 114,-129 13,-10 21,-20 34,-30 13,-9 23,-16 35,-25 8,-5 31,-22 39,-25 9,-8 9,-5 12,-18 7,-9 9,-19 15,-29 16,-34 26,-46 47,-76 15,-23 65,-71 87,-79 19,10 74,76 82,95 l 3,3 17,-2 c -3,-9 -19,-31 -26,-58 -4,-14 -18,-44 -26,-55 -10,-15 -24,-32 -50,-33 -36,-1 -43,1 -66,18 -20,14 -43,44 -57,66 -5,8 -11,17 -16,25 -14,25 -53,82 -73,91 -13,-4 -15,-18 -22,-30 -10,-1 -10,8 -22,26 l -303,416 c -5,10 -12,26 -22,31 1,-12 18,-42 24,-52 4,-8 8,-16 13,-25 l 66,-123 c 11,-23 39,-80 47,-105 9,-30 29,-97 28,-123 -21,-16 -76,-11 -100,-9 -23,2 -70,19 -89,34 -9,6 -34,32 -36,44 6,12 27,13 44,14 22,28 -4,104 -23,137 -8,14 -15,24 -23,36 l -89,116 c -41,53 -74,120 -36,191 30,56 114,64 170,66 z"
     class="fil13" /><path
     style="fill:#fffd5b"
     id="path198"
     d="m 2011.9016,3732.4219 c 45,3 40,-28 40,-66 0,-38 26,-49 60,-42 15,3 51,3 69,-7 28,-15 19,-39 30,-51 13,-14 33,18 51,-23 15,-31 55,-55 61,-73 8,-23 8,-20 1,-44 -18,-70 -74,-130 -114,-203 -6,-10 -14,-24 -19,-35 l -35,-70 c -1,-6 -5,-13 -8,-19 -15,-29 -44,-103 -54,-131 -3,-11 -16,-54 -16,-64 -1,-24 1,-56 -1,-80 -1,-11 -13,-78 -16,-89 -12,-28 -10,-44 -37,-69 l -6,-3 c -1,2 0,1 -1,3 l -6,527 c 0,26 -3,526 1,539 z"
     class="fil17" /><path
     style="fill:#01652a"
     id="path206"
     d="m 4435.9016,2324.4219 c 17,14 6,1 17,22 l 145,335 c 5,10 8,20 13,30 l 17,40 c 3,7 1,11 11,9 19,-18 38,-34 56,-60 18,-27 35,-41 33,-85 -2,-45 -67,-57 -99,-79 -15,-9 -18,-21 -11,-41 25,-1 28,33 65,13 7,-4 11,-10 14,-18 4,-8 8,-41 8,-53 -1,-21 3,-39 4,-60 0,-27 20,-69 11,-108 -9,-39 -19,-62 -41,-84 -18,-18 -50,-36 -83,-40 -15,-2 -73,-8 -80,10 -13,29 -27,23 -43,51 -10,17 4,33 -31,61 -8,5 -12,6 -17,15 -13,20 11,21 11,42 z"
     class="fil16" /><g
     id="g5011"
     style="fill:#f0d7ae;fill-opacity:1"><path
       class="fil12"
       d="m 2704.9016,2328.4219 c -8,5 -3,5 -6,13 -14,2 -34,-1 -39,0 0,0 -1,0 -1,1 0,0 -1,0 -1,0 l -4,2 42,1 -2,20 c -1,10 -4,9 -5,18 -1,9 0,12 -3,22 -4,11 -10,49 -11,60 -1,18 -6,21 -7,39 -1,19 -6,25 -7,41 0,17 -3,14 -7,42 -1,9 -4,8 -6,19 0,6 1,6 -2,11 -9,22 -2,13 -7,25 -8,20 -3,14 -9,16 -2,-7 -1,-39 -2,-52 0,-2 0,-7 0,-9 l -1,-6 c 0,-1 0,-1 0,-1 -2,12 1,64 0,84 -1,17 2,26 1,41 -1,14 -9,25 -7,39 5,-10 0,-14 9,-21 v 467 l -6,-1 c 3,9 5,6 5,17 l 1,70 c 0,29 1,251 -2,267 -1,8 -6,5 -7,18 6,-6 -1,-5 7,-8 2,2 1,0 2,4 v 17 c -2,78 0,181 0,260 0,45 -2,94 -2,142 0,14 -5,3 -5,40 -1,22 -11,56 -23,75 -14,24 -24,34 -48,47 -20,11 -15,7 -26,10 -4,1 -5,3 -9,4 -8,2 -13,0 -22,1 -8,2 -5,7 -19,7 l 1,-9 c -3,4 -1,-6 -3,6 -17,4 -77,4 -101,4 -12,0 -22,-3 -30,4 -1,8 -3,60 1,64 4,5 19,2 26,2 h 90 c 10,-3 -1,-3 10,-4 l 712,1 c 33,0 14,0 26,3 6,1 24,0 31,0 11,0 52,1 59,-2 3,-6 2,-17 2,-25 -12,15 15,24 -25,24 -14,0 -63,2 -67,-2 -5,-10 1,-48 -3,-64 l -139,-2 c -17,-1 -17,-4 -31,-6 -13,-2 -15,-4 -26,-7 -32,-8 -60,-31 -75,-64 -10,-18 -12,-23 -14,-39 -1,-9 -2,-7 -4,-13 -4,-14 2,-54 -3,-66 -3,-7 -4,-2 -5,-14 0,-6 0,-13 0,-18 -2,-104 -1,-208 -1,-313 0,-34 -3,-263 1,-277 h 195 c 56,0 49,2 44,-17 v -57 c 15,-1 22,1 28,-5 l -27,3 c -2,-19 2,-39 3,-57 2,-15 9,-35 5,-53 -3,3 -2,3 -2,14 0,18 -5,26 -6,41 -1,10 -2,17 -1,28 0,5 0,25 -4,27 -7,3 -217,5 -235,3 -4,-20 -1,-82 -1,-109 v -544 c 0,-22 -3,-210 2,-215 5,-4 148,-5 166,-4 4,5 3,10 5,7 0,-1 0,1 1,1 v -7 l 5,-1 c 0,0 0,-1 -1,-1 -8,-7 -5,-3 -9,-18 -3,-9 -1,-16 -3,-24 -6,-24 -19,-29 13,-28 -6,-5 -14,-3 -21,-3 -1,-1 -2,-4 -2,-4 l -3,-5 v 11 c -24,2 -65,0 -91,0 l -180,2 c -17,0 -24,4 -42,4 l -44,-2 c 0,-7 1,-7 2,-12 z"
       id="path174"
       style="fill:#f0d7ae;fill-opacity:1" /><path
       class="fil12"
       d="m 1595.9016,2352.4219 -1,5 c -8,0 -20,-2 -32,-1 -24,0 -83,-2 -98,0 l 1,31 -4,3 c 1,10 1,22 4,31 l 22,1 c 8,0 16,0 23,0 15,1 29,2 44,1 l 4,6 1,-7 c 7,0 40,0 46,2 5,2 52,9 63,15 26,13 39,24 52,51 3,7 4,12 7,18 6,13 2,9 5,20 2,9 4,8 5,21 1,21 -2,27 5,46 1,7 1,40 1,48 -3,3 6,4 -6,2 5,7 5,10 7,15 v -11 c 17,2 79,51 80,82 1,45 -15,30 -35,72 -3,8 -18,49 -18,60 -1,14 -2,12 -5,23 -5,15 -2,33 -4,50 -5,48 2,157 1,213 -1,34 -6,67 -6,101 0,9 0,19 0,27 -1,6 -2,7 -3,12 -1,2 -1,3 -1,5 l -4,10 c 0,2 0,5 0,7 0,17 3,25 -4,32 -1,70 -6,36 -9,81 0,7 -4,17 -6,26 5,-5 7,-15 7,-21 1,-13 -2,-18 6,-24 5,11 0,50 0,67 l 2,212 c -1,82 1,164 -2,247 -1,21 5,29 -4,31 1,6 3,14 2,21 0,2 -5,18 -6,18 -7,10 -57,18 -18,74 5,8 6,5 8,11 l -6,6 c 0,0 -1,1 -1,1 l 6,1 c 3,20 -6,59 1,77 11,33 57,37 87,32 l 30,-11 c 7,-8 3,-18 -13,-23 -17,-5 -37,-7 -32,-30 3,-9 13,-16 13,-48 0,-34 -10,-36 -1,-73 2,-7 1,-11 1,-18 1,-7 4,-9 5,-15 2,-6 1,-12 2,-19 1,-13 6,-7 7,-33 0,-10 1,-10 3,-18 3,-10 0,-29 6,-36 12,-9 24,8 29,14 10,10 11,19 31,19 29,0 50,-20 64,-33 13,-12 37,-35 34,-63 0,-5 -1,-16 -3,-20 l -15,-36 c -17,-38 32,-29 38,-26 v -2 c -4,-13 -1,-513 -1,-539 l 6,-527 c 1,-2 0,-1 1,-3 l 6,3 c -5,-7 -6,-3 -7,-12 0,-3 -1,-13 0,-16 0,-11 2,-23 1,-35 0,0 -1,1 -1,1 0,0 0,1 0,1 -1,0 -1,0 -1,1 l -3,45 c -10,-2 -13,-15 -20,-24 -10,-15 -23,-37 -29,-53 -6,-16 -9,-31 -17,-45 l -37,-66 c -11,-17 -14,-17 -15,-26 18,-2 34,0 50,-6 8,-2 59,-4 89,-18 15,-7 41,-24 53,-29 11,-4 -2,3 21,-7 7,-3 15,-1 23,-3 10,-3 9,-4 21,-5 17,0 76,-13 96,-13 l 121,-48 c 3,-2 30,-12 43,-21 19,-11 26,-16 49,-12 14,2 30,4 35,-8 -5,-14 -17,-11 -31,-12 -8,-8 -9,-34 2,-42 l 20,-7 c 14,-6 19,3 20,-14 -3,-3 -1,-2 -7,-3 h -23 c -1,-15 0,-15 14,-27 6,-5 3,-2 6,-11 -15,0 -19,3 -27,10 -22,15 -18,17 -27,44 -6,14 -19,29 -30,38 -7,6 -15,11 -22,14 -29,17 -73,27 -108,31 -21,2 -45,-1 -67,2 -50,7 -89,24 -134,40 -20,7 -18,10 -39,12 -10,1 -8,2 -14,4 -8,3 -57,1 -65,-1 -15,-4 -90,-3 -102,-3 -21,0 -39,8 -59,10 -42,4 -171,4 -207,0 z"
       id="path178"
       style="fill:#f0d7ae;fill-opacity:1" /><path
       class="fil12"
       d="m 5489.9016,3040.4219 c 11,6 20,0 32,3 -1,9 -6,5 -3,18 2,-4 6,-15 8,-21 31,-1 25,5 42,-17 25,-34 15,-55 41,-73 6,-5 11,-8 17,-11 9,-5 14,-4 14,-15 -11,0 -38,17 -51,24 -8,5 -6,8 -17,8 0,-10 0,-5 3,-12 2,-3 3,-4 6,-8 27,-45 59,-70 77,-116 7,-18 28,2 34,9 4,5 5,9 10,13 5,5 8,5 12,8 -2,5 -9,11 -13,15 -22,33 -32,65 -54,83 -21,16 -34,13 -36,21 1,7 7,9 13,11 3,0 9,-9 13,-5 11,18 -15,63 -24,77 -5,7 -7,10 -11,16 -5,8 -3,10 -5,20 -4,19 -6,22 -6,44 0,8 -1,17 -2,24 -5,17 -4,105 -3,124 1,11 0,15 3,24 1,8 1,13 2,21 1,40 -1,15 6,46 2,8 1,15 3,23 6,27 1,17 9,42 l 22,80 c 2,10 4,10 6,19 13,41 42,106 60,143 46,93 96,166 156,251 7,9 14,19 22,29 l 136,169 c -8,13 -32,9 -50,14 -9,3 -36,2 -45,3 -10,1 -5,2 -12,4 -5,-5 -1,-1 -7,-4 v 5 c 11,-1 7,-1 13,3 l 70,38 c 13,5 28,14 42,18 14,6 34,15 47,15 v 7 h 14 l -4,-6 c 4,-1 44,-1 56,-4 19,-5 94,-8 115,-5 7,1 22,1 27,3 9,2 14,8 24,4 5,-10 1,-30 2,-44 l 8,1 c -1,-2 -4,-2 -6,-5 -2,-5 0,-5 -3,-10 v 13 c -12,0 -18,-5 -30,-8 -5,-1 -22,-6 -27,-8 -95,-38 -151,-75 -218,-144 -50,-50 -89,-103 -122,-168 -24,-47 -26,-56 -43,-101 -11,-28 -9,-31 -13,-43 -1,-5 -3,-6 -5,-13 l -13,-58 c -2,-13 -6,-14 -7,-30 -1,-12 -6,-19 -7,-29 -1,-12 0,-21 -3,-33 -4,-18 -2,-35 -6,-50 -5,-25 -4,-19 -5,-49 l -4,-175 c 0,-32 1,-16 3,-32 1,-10 0,-25 1,-36 1,-11 0,-24 0,-35 1,-37 7,-34 8,-65 1,-29 2,-17 5,-34 1,-10 0,-23 2,-33 2,-12 5,-11 6,-29 1,-12 5,-17 6,-29 2,-16 12,-49 14,-60 1,-13 4,-16 7,-29 1,-7 2,-7 4,-13 2,-5 2,-9 4,-15 9,-31 26,-72 39,-104 18,-43 54,-103 81,-137 11,-14 20,-29 32,-40 7,2 2,-1 6,5 0,-8 -1,-7 3,-14 l -10,2 c -9,-17 -27,-41 -40,-53 -9,-7 -16,-13 -31,-16 -10,-1 -9,-4 -19,-3 -10,0 -8,3 -20,3 l 13,-40 c 8,-13 0,-12 0,-13 -8,3 -31,20 -39,25 -12,9 -22,16 -35,25 -13,10 -21,20 -34,30 -35,29 -89,92 -114,129 -58,85 -75,122 -118,221 l -23,67 c -1,4 -6,18 -7,23 -5,13 -9,34 -14,48 -3,11 -3,8 -5,24 z"
       id="path184"
       style="fill:#f0d7ae;fill-opacity:1" /><path
       class="fil12"
       d="m 4315.9016,2486.4219 c 9,-2 5,0 7,-7 l 51,-118 c 5,-4 24,-8 30,-31 18,-1 38,-4 39,10 1,14 -13,5 -14,36 0,10 -1,21 1,31 7,10 35,7 42,10 26,13 5,54 -3,56 -3,0 -27,-15 -39,-17 -15,-1 -10,4 -21,6 -35,7 -63,44 -84,51 -6,-8 1,-15 -11,-13 -5,6 -1,-1 -4,6 l -32,72 c -6,12 -27,69 -36,88 l -38,88 c -3,8 -4,9 -8,19 -5,12 -11,26 -17,38 l -50,115 c -5,13 -12,29 -17,39 -5,12 -11,27 -17,39 -4,13 -10,26 -16,39 l -16,40 c -1,4 -2,4 -4,10 -2,5 0,4 -4,10 -6,8 -2,-1 -5,10 -1,6 3,5 -5,7 v -11 c -5,4 -1,3 -4,11 -4,12 0,-10 -6,18 -1,6 0,0 -2,5 -4,8 -2,5 -2,14 -13,12 -5,8 -11,20 -3,8 -2,-3 -3,8 3,-2 2,-2 7,-2 1,14 -3,11 -6,22 -1,10 -1,15 -4,24 -10,28 -12,147 -9,158 h 4 c 4,-16 71,-167 74,-175 7,-16 11,-29 18,-43 l 28,-65 c 3,-10 6,-14 10,-24 l 133,-314 c 2,-5 3,-6 5,-11 l 9,-23 c 7,-13 15,-29 18,-45 6,1 6,1 9,7 l 40,96 c 4,8 7,14 10,22 l 147,344 c 6,16 14,29 19,44 2,7 6,15 9,22 l 28,65 c 7,15 12,28 17,42 12,26 14,21 13,54 1,-3 0,0 2,-6 0,-3 0,-2 0,-6 2,5 3,4 8,8 -3,-9 -6,-10 -6,-18 l 23,-2 c 3,-21 -4,-48 -13,-67 -3,-6 -5,-11 -10,-18 -25,-44 -48,-65 -64,-124 -4,-11 -12,-27 -15,-42 0,-2 -10,-30 -12,-42 -1,-9 -5,-13 -6,-21 -2,-12 -2,-13 -5,-22 -2,-7 -2,-16 -3,-23 -2,-9 -4,-14 -6,-21 -1,-8 0,-20 -1,-28 0,-26 -1,-26 8,-46 16,-36 56,-55 83,-82 l 39,-41 c 14,-13 4,-10 16,-14 2,4 2,6 7,10 -3,-10 -7,-9 -2,-18 -10,2 -8,-2 -11,-9 l -17,-40 c -5,-10 -8,-20 -13,-30 l -145,-335 c -11,-21 0,-8 -17,-22 -3,4 -25,3 -30,2 -2,-5 0,-4 -1,-8 -3,-6 0,-3 -5,-6 9,21 -2,14 -16,18 0,3 -6,23 -12,27 -14,5 -41,-5 -49,-1 -9,5 -13,24 -17,37 -11,25 -1,54 2,73 4,17 0,16 8,20 z"
       id="path190"
       style="fill:#f0d7ae;fill-opacity:1" /><path
       class="fil12"
       d="m 3524.9016,2861.4219 6,1 -2,64 c 1,-1 1,0 3,-9 0,-7 -1,-19 0,-30 4,-22 -3,-26 5,-35 21,-21 23,-19 30,-49 8,-2 20,-1 23,-9 10,-17 -14,-42 26,-30 l 21,6 c 1,11 -2,33 -6,43 -4,11 -10,22 -12,34 -2,8 -5,10 -7,17 -2,8 -2,12 -5,19 -2,13 2,33 -3,43 -4,5 -8,8 -12,14 l -55,61 c -3,2 -8,6 -12,10 -6,6 -4,9 -13,11 l 1,-9 c -2,2 0,-1 -3,4 -7,9 2,3 -10,17 l 6,2 c -2,8 -7,13 -10,21 l -10,21 c -14,32 -48,77 -73,102 -29,28 -70,55 -109,67 -5,2 -5,3 -10,5 -6,2 -14,1 -23,6 -5,3 -6,2 -5,8 12,15 38,42 57,47 34,8 84,-52 101,-73 11,-13 28,-23 38,-32 8,-8 11,-8 20,-15 64,-50 71,-56 117,-129 9,-14 22,-26 32,-38 l 55,-65 c 11,-16 26,-39 31,-57 9,-31 9,-9 31,-39 16,-18 9,-31 21,-48 21,-30 20,-29 40,-16 -1,11 -2,6 -3,12 -3,13 15,15 17,16 15,5 3,51 2,73 l 4,-7 c 1,-3 1,-5 2,-9 0,-8 1,-9 2,-18 1,-10 0,-26 1,-37 h 8 l -3,-1 c 0,-1 -1,-1 -1,-1 l -7,-3 c 0,-9 1,-26 0,-34 -1,-7 -7,-17 -6,-29 1,0 1,-1 2,-1 l 7,-1 c -8,-6 -4,1 -9,-10 0,0 -1,-1 -1,-1 l -2,-5 v 11 c -10,0 -31,-19 -35,-25 -25,-24 -6,-25 -32,-23 -24,2 -28,-15 -42,-19 -30,-8 -19,24 -22,31 -19,-3 6,-15 -57,-12 -14,1 -51,5 -59,-5 -5,-5 0,-8 -8,-29 -8,-23 -27,-41 -55,-45 h -15 c 1,7 20,63 21,77 1,16 3,14 7,26 l 6,59 c 0,8 3,60 0,64 l -3,3 c -2,2 -1,1 -3,3 z"
       id="path212"
       style="fill:#f0d7ae;fill-opacity:1" /></g><path
     style="fill:#fffd5b"
     id="path216"
     d="m 804.90162,2400.4219 v 7 l 47,-1 c 4,11 2,14 8,25 5,8 11,11 12,21 -12,0 -11,-4 -22,-3 -10,1 -14,3 -21,8 6,25 33,18 45,25 12,4 9,7 26,7 12,1 22,0 34,-1 7,0 25.99998,1 32.99998,1 l 120,20 c 7,1 17,4 26,6 l 63,7 c 40,1 77,-8 113,5 l 42,9 c 5,0 11,-1 16,0 7,1 6,3 14,3 32,1 70,4 103,3 12,-1 20,-8 31,1 23,19 10,12 40,29 19,9 51,23 71,31 7,2 19,5 27,9 19,8 44,13 64,21 6,2 10,2 16,3 4,2 2,3 11,5 7,2 8,1 14,4 12,2 3,1 6,-2 0,-8 0,-41 -1,-48 -7,-19 -4,-25 -5,-46 -1,-13 -3,-12 -5,-21 -3,-11 1,-7 -5,-20 -3,-6 -4,-11 -7,-18 -13,-27 -26,-38 -52,-51 -11,-6 -58,-13 -63,-15 -6,-2 -39,-2 -46,-2 l -1,7 c 1,8 20,30 -5,25 -6,-1 -8,-1 -14,-1 -11,1 -15,3 -24,8 -39,18 -41,12 -69,8 -9,-1 -16,-4 -24,-6 -16,-3 -2,3 -24,-5 -15,-6 -69,-6 -83,-1 -8,3 -14,4 -22,6 -10,4 0,4 -24,7 -46,6 -55,-4 -73,-7 -40,-6 -28,-8 -83,-8 -10,0 -19,0 -29,0 -12,0 -14,3 -27,3 -29,2 -84,10 -112.99998,5 -32,-6 -49,-59 -71,-76 -7,-6 -16,-4 -26,-4 -16,0 -14,-1 -25,5 -10,5 -11,4 -18,12 z"
     class="fil17" /><path
     style="fill:#ff6e2b"
     id="path218"
     d="m 2620.9016,2754.4219 c 0,2 -7,30 -8,32 -4,9 -11,9 -25,13 l -45,14 c -21,6 -6,-11 -39,29 -8,9 -13,20 -21,29 -29,33 -15,28 -21,52 -6,29 -26,57 -43,80 -14,20 -28,36 -40,59 -10,20 -21,56 -12,81 4,16 0,27 17,31 19,5 18,7 43,7 14,0 34,1 46,-3 l 63,-12 c 7,-1 13,-4 19,-5 12,-2 35,-7 45,-6 l 5,7 c 8,17 -1,61 15,65 6,-11 -5,-21 -5,-33 7,1 6,-2 9,5 l 6,1 v -467 c -9,7 -4,11 -9,21 z"
     class="fil15" /><path
     style="fill:#01652a"
     id="path220"
     d="m 4462.9016,3555.4219 c 6,3 18,30 21,37 14,32 12,16 26,33 10,12 18,21 27,32 21,28 51,79 67,108 15,27 29,48 46,73 l 49,69 c 12,21 43,67 51,94 l 13,77 c 2,16 14,29 20,39 10,13 10,29 12,47 20,1 53,-11 70,-27 13,-12 7,-13 15,-19 l 2,-9 c -5,-4 -11,-20 -19,-33 -26,-45 -40,-67 -64,-118 -3,-8 -3,-10 -6,-18 l -43,-140 c -8,-27 -17,-53 -22,-81 l -19,-59 c -20,-63 -58,-63 -89,-115 -23,-2 -55,0 -80,0 -13,0 -70,-2 -78,2 z"
     class="fil16" /><path
     style="fill:#01652a"
     id="path222"
     d="m 3964.9016,3545.4219 c 0,8 -7,18 -12,32 -5,10 -11,20 -14,30 -12,30 -27,73 -28,106 0,15 -4,26 -6,39 -2,14 -1,28 -2,43 -1,13 -4,30 -4,43 -1,50 0,35 -7,81 -3,17 -1,34 -12,55 -2,5 -5,10 -7,16 -5,10 -9,24 -6,35 5,15 0,24 -3,37 -2,10 -9,23 -13,32 -3,9 -13,27 -13,36 17,12 46,28 68,33 5,1 9,1 13,2 7,4 2,5 14,5 l 12,-63 c 3,-7 5,-11 8,-20 3,-13 8,-27 10,-39 5,-21 -4,-31 -6,-46 -1,-23 3,-27 7,-44 1,-4 0,-8 1,-11 2,-6 2,-3 4,-9 2,-5 2,-6 3,-10 0,-6 1,-6 3,-10 l 58,-148 c 17,-35 30,-73 43,-111 4,-15 5,-23 13,-39 5,-16 5,-17 19,-33 3,-5 6,-7 11,-14 3,-5 5,-15 8,-16 l 3,-10 c -8,-6 -143,1 -160,-3 z"
     class="fil16" /><path
     style="fill:#ff6e2b"
     id="path226"
     d="m 2620.9016,3571.4219 c -1,7 -28,64 -36,79 -17,38 -44,121 -45,162 0,10 -3,29 -4,41 -2,11 -1,30 -2,42 -4,24 -6,73 -9,85 -9,45 2,48 -25,113 -5,12 -8,20 -11,35 l -12,33 -1,9 c 14,0 11,-5 19,-7 9,-1 14,1 22,-1 4,-1 5,-3 9,-4 11,-3 6,1 26,-10 24,-13 34,-23 48,-47 12,-19 22,-53 23,-75 0,-37 5,-26 5,-40 0,-48 2,-97 2,-142 0,-79 -2,-182 0,-260 v -17 c -1,-4 0,-2 -2,-4 -8,3 -1,2 -7,8 z"
     class="fil15" /><path
     style="fill:#01652a"
     id="path228"
     d="m 4044.9016,3109.4219 v 11 c 8,-2 4,-1 5,-7 3,-11 -1,-2 5,-10 4,-6 2,-5 4,-10 2,-6 3,-6 4,-10 l 16,-40 c 6,-13 12,-26 16,-39 6,-12 12,-27 17,-39 5,-10 12,-26 17,-39 l 50,-115 c 6,-12 12,-26 17,-38 4,-10 5,-11 8,-19 l 38,-88 c 9,-19 30,-76 36,-88 l 32,-72 c 3,-7 -1,0 4,-6 l 2,-14 c -8,-4 -4,-3 -8,-20 -3,-19 -13,-48 -2,-73 4,-13 8,-32 17,-37 8,-4 35,6 49,1 6,-4 12,-24 12,-27 14,-4 25,3 16,-18 -24,-31 -46,-13 -68,-15 -10,-18 -7,-17 -63,-15 -37,1 -38,25 -56,18 -25,-7 -56,0 -75,-5 -21,-6 -34,-2 -53,2 -6,1 -8,3 -10,9 16,18 77,15 92,18 7,1 8,2 19,3 15,2 33,1 37,9 3,7 -3,45 0,60 2,9 6,17 7,26 2,15 11,40 14,50 2,11 3,14 5,26 2,9 7,17 8,26 5,55 -10,57 -41,91 -18,20 -61,69 -65,97 -4,20 -1,40 0,61 0,13 9,31 4,57 -8,49 -26,77 -46,116 -11,21 -40,95 -46,115 -2,8 -14,43 -18,48 z"
     class="fil16" /><path
     style="fill:#ff6e2b"
     id="path232"
     d="m 2704.9016,2328.4219 c -1,5 -2,5 -2,12 l 44,2 c 18,0 25,-4 42,-4 l 180,-2 c 26,0 67,2 91,0 v -11 c -10,-33 -33,-70 -62,-90 -9,-7 -14,-9 -24,-13 -19,-11 -71,-23 -92,-25 -74,-6 -121,15 -154,76 -8,16 -23,55 -23,55 z"
     class="fil15" /><path
     style="fill:#fffd5b"
     id="path242"
     d="m 1730.9016,3450.4219 c 2,17 -15,70 -20,88 -5,14 -15,35 -20,50 -2,6 -5,9 -7,16 l -9,34 c -8,20 -11,58 -27,87 -38,71 -5,62 19,83 19,17 17,49 23,67 5,17 0,19 12,34 19,25 19,14 38,53 9,-2 3,-10 4,-31 3,-83 1,-165 2,-247 l -2,-212 c 0,-17 5,-56 0,-67 -8,6 -5,11 -6,24 0,6 -2,16 -7,21 z"
     class="fil17" /><path
     style="fill:#fffd5b"
     id="path244"
     d="m 1461.9016,2390.4219 4,-3 -1,-31 c 15,-2 74,0 98,0 12,-1 24,1 32,1 l 1,-5 c -6,-4 -20,-13 -24,-19 -9,-8 -5,-24 -8,-36 l -11,-33 c -18,-35 -37,-44 -40,-50 -7,-12 -2,-19 -16,-29 -25,-18 -61,-8 -76,14 -5,7 -4,9 -10,14 -11,11 -34,26 -39,51 -2,12 -8,21 -2,38 3,6 3,13 5,17 10,25 33,46 55,58 7,3 26,13 32,13 z"
     class="fil17" /><path
     style="fill:#02178a"
     id="path246"
     d="m 6301.9016,2323.4219 105,-5 c 10,0 9,3 19,3 16,1 28,2 43,2 11,1 29,2 40,6 7,1 11,1 19,1 7,1 10,4 20,5 30,4 22,6 36,8 11,2 10,1 17,4 7,3 11,3 20,4 5,-11 4,1 9,-21 2,-7 5,-18 6,-26 3,-26 -8,-30 -22,-39 -41,-28 -137,-72 -189,-46 -50,26 -36,75 -43,82 -8,9 -80,-3 -80,6 0,0 -1,1 -1,1 l 1,7 c 0,3 1,2 0,8 z"
     class="fil13" /><path
     style="fill:#ff6e2b"
     id="path264"
     d="m 3833.9016,2761.4219 -7,1 c -1,0 -1,1 -2,1 -1,12 5,22 6,29 1,8 0,25 0,34 l 7,3 c 0,0 1,0 1,1 l 3,1 8,5 c -1,11 -12,17 -1,32 6,11 21,14 28,2 3,-6 0,-14 1,-23 11,0 23,9 33,16 -2,8 -8,3 -9,17 -1,11 0,17 9,20 22,8 28,1 31,-19 22,-2 19,13 46,2 37,-14 46,-53 26,-76 -9,-9 -31,-19 -48,-11 -7,7 -6,15 -10,25 -12,1 -26,-16 -29,-24 6,-3 10,-1 14,-7 3,-4 4,-12 3,-19 -30,-26 -28,-13 -45,7 -8,0 -25,-7 -30,-13 1,-10 19,-27 10,-35 -10,-10 -25,6 -27,12 -2,5 -1,29 -18,19 z"
     class="fil15" /><g
     id="g5039"><path
       class="fil14"
       d="m 6301.9016,2323.4219 c -14,0 -21,2 -31,4 -12,3 -22,2 -33,3 l -46,8 c -7,3 -6,5 -15,4 l -17,2 -3,-3 c 1,8 -3,6 -12,8 -6,1 -10,3 -15,5 l -33,9 c -49,17 -69,26 -116,48 -11,6 -49,27 -57,28 l 2,-9 c -3,13 -3,10 -12,18 0,1 8,0 0,13 l -13,40 c 12,0 10,-3 20,-3 10,-1 9,2 19,3 15,3 22,9 31,16 13,12 31,36 40,53 l 10,-2 c 0,-8 21,-26 28,-34 l 36,-30 c 30,-23 74,-51 109,-67 13,-5 22,-11 34,-9 0,-7 6,-5 23,-10 l 26,-8 c 5,-2 9,-1 15,-2 3,-1 7,-3 12,-4 10,-4 21,0 32,-3 9,-3 4,-6 26,-6 26,0 113,-2 133,1 12,2 50,7 57,11 2,0 44,8 54,12 6,3 6,2 13,3 9,2 5,2 13,5 28,10 41,10 36,32 2,-6 0,-10 0,-18 8,1 8,1 13,4 l 54,27 c 48,28 92,56 132,95 37,37 57,59 87,109 10,15 14,24 24,41 7,15 30,61 35,78 2,6 2,8 4,12 l 18,49 c 1,7 2,7 4,12 1,5 1,8 2,13 l 8,25 c 6,23 16,56 19,80 1,7 4,14 6,24 3,23 4,16 6,27 6,39 -11,31 46,32 23,1 15,1 15,-44 0,-14 0,-29 -1,-44 0,-15 0,-30 0,-45 0,-16 -2,-29 -1,-44 0,-15 0,-30 0,-45 0,-12 -3,-12 -4,-20 l -1,-112 c 0,-52 1,-131 -3,-180 -1,-15 0,-187 -6,-178 0,1 -1,0 -2,0 0,0 -1,-1 -1,-1 h -8 c -53,1 -45,-7 -48,18 -1,5 -3,9 -4,15 -3,13 -2,21 -6,33 -2,9 -1,12 -6,31 -2,5 -2,11 -4,16 -2,7 -4,9 -5,14 -5,25 -19,62 -30,85 -3,8 -7,21 -12,27 -5,-1 -50,-50 -57,-57 -69,-69 -196,-141 -288,-174 -13,-4 -18,-7 -31,-8 l -2,-5 c -9,-1 -13,-1 -20,-4 -7,-3 -6,-2 -17,-4 -14,-2 -6,-4 -36,-8 -10,-1 -13,-4 -20,-5 -8,0 -12,0 -19,-1 -11,-4 -29,-5 -40,-6 -15,0 -27,-1 -43,-2 -10,0 -9,-3 -19,-3 z"
       id="path192"
       style="fill:#b20029" /><path
       class="fil14"
       d="m 5518.9016,3061.4219 c 0,7 -8,47 -11,58 -2,7 -1,16 -2,23 -2,14 -7,25 -8,39 0,16 0,30 -2,45 -7,41 -4,182 1,229 1,14 1,32 3,45 4,15 5,23 7,39 1,7 4,12 5,19 l 12,59 c 3,9 1,11 5,20 3,9 2,9 4,20 l 18,52 c 4,14 29,70 36,85 22,56 90,153 131,198 l 72,71 c 24,20 41,34 66,53 l 42,28 c 6,3 2,-1 7,4 7,-2 2,-3 12,-4 9,-1 36,0 45,-3 18,-5 42,-1 50,-14 l -136,-169 c -8,-10 -15,-20 -22,-29 -60,-85 -110,-158 -156,-251 -18,-37 -47,-102 -60,-143 -2,-9 -4,-9 -6,-19 l -22,-80 c -8,-25 -3,-15 -9,-42 -2,-8 -1,-15 -3,-23 -7,-31 -5,-6 -6,-46 -1,-8 -1,-13 -2,-21 -3,-9 -2,-13 -3,-24 -1,-19 -2,-107 3,-124 1,-7 2,-16 2,-24 0,-22 2,-25 6,-44 2,-10 0,-12 5,-20 4,-6 6,-9 11,-16 9,-14 35,-59 24,-77 -4,-4 -10,5 -13,5 -6,-2 -12,-4 -13,-11 2,-8 15,-5 36,-21 22,-18 32,-50 54,-83 4,-4 11,-10 13,-15 -4,-3 -7,-3 -12,-8 -5,-4 -6,-8 -10,-13 -6,-7 -27,-27 -34,-9 -18,46 -50,71 -77,116 -3,4 -4,5 -6,8 -3,7 -3,2 -3,12 11,0 9,-3 17,-8 13,-7 40,-24 51,-24 0,11 -5,10 -14,15 -6,3 -11,6 -17,11 -26,18 -16,39 -41,73 -17,22 -11,16 -42,17 -2,6 -6,17 -8,21 z"
       id="path196"
       style="fill:#b20029" /><path
       class="fil14"
       d="m 6311.9016,4179.4219 -8,-1 c -1,14 3,34 -2,44 -10,4 -15,-2 -24,-4 -5,-2 -20,-2 -27,-3 -21,-3 -96,0 -115,5 -12,3 -52,3 -56,4 l 4,6 c 8,0 7,3 13,5 6,2 11,1 17,3 7,1 6,3 14,4 l 46,12 c 11,2 24,2 33,6 l 68,9 c 13,2 60,2 74,4 24,4 50,2 74,0 6,-1 13,0 20,0 7,-1 5,-3 16,-3 40,-1 46,-6 69,-7 23,-1 100,-22 125,-31 5,-2 9,-2 15,-5 81,-34 83,-32 166,-85 50,-31 106,-84 145,-126 4,-6 13,-18 20,-20 5,6 10,14 13,21 5,8 10,13 14,20 24,40 36,78 49,122 11,34 2,32 37,32 39,0 33,7 33,-41 v -609 c 0,-7 1,-5 -3,-7 -4,-5 -46,-4 -56,-2 -6,4 -4,21 -6,35 -6,36 -4,27 -11,56 -2,7 -1,13 -4,20 -6,16 -14,56 -20,71 -17,44 -20,54 -39,98 -54,125 -127,230 -249,298 -32,18 -61,28 -94,41 l -88,26 c -8,1 -11,4 -18,5 -6,2 -12,1 -20,3 -6,1 -12,3 -18,4 -14,3 -31,1 -44,3 -15,2 -26,2 -42,2 -7,0 -16,0 -23,0 -9,-1 -9,-2 -19,-2 -14,-1 -70,-8 -79,-13 z"
       id="path200"
       style="fill:#b20029" /><path
       class="fil14"
       d="m 5904.9016,2697.4219 c 1,-10 -3,-16 -13,-26 -11,-9 -35,-30 -43,-39 -10,-12 -9,-23 -12,-29 -14,-2 -44,26 -53,37 -9,11 -31,56 -25,65 2,3 45,12 54,15 7,2 15,1 22,1 23,0 23,1 42,-6 9,-3 23,-13 28,-18 z"
       id="path306"
       style="fill:#b20029" /></g><g
     id="g5026"><path
       class="fil14"
       d="m 3265.9016,3266.4219 c -7,-5 -6,-4 -16,-2 -6,2 -12,3 -20,3 -10,0 -15,4 -26,6 -8,1 -23,2 -29,1 -6,6 -13,4 -28,5 v 57 c 9,6 3,5 7,15 l 52,2 c 22,-1 41,-2 64,-3 7,-1 6,-2 12,-3 l 50,-2 c 8,-1 18,-4 27,-5 13,-1 19,1 32,-2 9,-3 17,-5 29,-5 11,-1 72,-15 81,-18 l 51,-17 c 75,-36 138,-82 186,-149 16,-24 43,-69 53,-96 2,-5 3,-9 5,-14 l 15,-50 c 2,-12 6,-17 8,-27 2,-20 4,-37 6,-60 1,-22 13,-68 -2,-73 -2,-1 -20,-3 -17,-16 1,-6 2,-1 3,-12 -20,-13 -19,-14 -40,16 -12,17 -5,30 -21,48 -22,30 -22,8 -31,39 -5,18 -20,41 -31,57 l -55,65 c -10,12 -23,24 -32,38 -46,73 -53,79 -117,129 -9,7 -12,7 -20,15 -10,9 -27,19 -38,32 -17,21 -67,81 -101,73 -19,-5 -45,-32 -57,-47 z"
       id="path208"
       style="fill:#b20029" /><path
       class="fil14"
       d="m 3491.9016,2619.4219 c 5,7 -1,4 7,7 4,1 8,1 13,3 28,4 47,22 55,45 8,21 3,24 8,29 8,10 45,6 59,5 63,-3 38,9 57,12 3,-7 -8,-39 22,-31 14,4 18,21 42,19 26,-2 7,-1 32,23 4,6 25,25 35,25 v -11 c -5,-8 -3,-7 -3,-18 l -17,-58 c -22,-50 -37,-82 -74,-125 -47,-56 -105,-96 -170,-128 l -80,-32 c -5,-1 -8,-1 -11,-2 -6,-2 -12,-5 -19,-6 -15,-3 -28,-9 -45,-6 -1,5 -3,9 -5,13 -3,8 -3,5 -6,12 -6,20 -31,66 -32,75 4,4 16,11 20,14 50,31 86,80 112,135 z"
       id="path214"
       style="fill:#b20029" /><path
       class="fil14"
       d="m 2626.9016,2590.4219 c 0,0 0,0 0,1 l 1,6 c 0,2 0,7 0,9 1,13 0,45 2,52 6,-2 1,4 9,-16 5,-12 -2,-3 7,-25 3,-5 2,-5 2,-11 2,-11 5,-10 6,-19 4,-28 7,-25 7,-42 1,-16 6,-22 7,-41 1,-18 6,-21 7,-39 1,-11 7,-49 11,-60 3,-10 2,-13 3,-22 1,-9 4,-8 5,-18 l 2,-20 -42,-1 c -24,2 -28,-3 -55,2 l -99,3 c -20,0 -148,4 -154,8 -5,4 -2,24 -2,30 0,20 -5,32 10,33 12,1 22,-1 42,2 19,1 62,0 84,0 l 48,9 c 9,3 17,5 23,6 41,18 62,59 71,101 1,6 5,47 5,52 z"
       id="path234"
       style="fill:#b20029" /><path
       class="fil14"
       d="m 3085.9016,2408.4219 c 37,-3 78,6 105,7 12,1 79,19 91,22 11,3 48,19 55,20 l 4,-5 c 5,-8 4,-8 8,-16 l 26,-59 c 2,-8 4,-4 3,-14 -17,-9 -115,-17 -140,-18 -22,-2 -55,-4 -77,-4 -14,0 -20,-3 -36,-3 -13,0 -27,1 -39,-1 -32,-1 -19,4 -13,28 2,8 0,15 3,24 4,15 1,11 9,18 1,0 1,1 1,1 z"
       id="path250"
       style="fill:#b20029" /><path
       class="fil14"
       d="m 3528.9016,2926.4219 c 1,4 -3,41 -5,47 -3,9 -4,11 -5,22 -2,8 -5,10 -6,18 l -1,9 c 9,-2 7,-5 13,-11 4,-4 9,-8 12,-10 l 55,-61 c 4,-6 8,-9 12,-14 5,-10 1,-30 3,-43 3,-7 3,-11 5,-19 2,-7 5,-9 7,-17 2,-12 8,-23 12,-34 4,-10 7,-32 6,-43 l -21,-6 c -40,-12 -16,13 -26,30 -3,8 -15,7 -23,9 -7,30 -9,28 -30,49 -8,9 -1,13 -5,35 -1,11 0,23 0,30 -2,9 -2,8 -3,9 z"
       id="path282"
       style="fill:#b20029" /><path
       class="fil14"
       d="m 2635.9016,3534.4219 c 8,-4 1,2 9,-17 l 29,-73 c 6,-20 16,-43 15,-63 0,-10 -7,-29 -11,-39 l -36,-105 c -2,-6 0,-6 -6,-8 -1,0 -1,0 -1,1 0,1 -1,1 -1,1 l -1,14 c 1,7 1,13 1,19 v 231 c 0,14 -3,32 2,39 z"
       id="path308"
       style="fill:#b20029" /><path
       class="fil14"
       d="m 2345.9016,4236.4219 c 1,1 2,0 2,1 0,1 1,0 1,1 h 107 c 12,-3 3,-20 9,-36 l 10,-31 c -26,-1 -34,4 -46,4 l -72,-1 c -12,0 -13,1 -13,13 1,12 -2,40 2,49 z"
       id="path316"
       style="fill:#b20029" /></g><path
     style="fill:#02178a"
     id="path318"
     d="m 6069.9016,4230.4219 v -7 c -13,0 -33,-9 -47,-15 -14,-4 -29,-13 -42,-18 l -70,-38 c -6,-4 -2,-4 -13,-3 -14,8 -24,19 -26,37 4,11 44,28 58,33 11,4 14,3 26,5 55,13 80,1 114,6 z"
     class="fil13" /><g
     id="g5017"><path
       class="fil14"
       d="m 1718.9016,4093.4219 c 0,16 -27,40 -36,47 -16,14 -51,24 -74,29 -6,1 -14,0 -20,1 l -38,4 c -25,0 -60,-2 -84,1 l -1,63 c 31,2 71,0 103,0 35,0 68,0 103,0 70,0 138,0 208,0 30,0 397,2 410,0 3,-1 3,-1 4,-6 l -1,-54 c 0,-3 0,-1 -1,-3 -10,-6 -72,-1 -88,-2 -19,0 -62,-6 -80,-11 -53,-14 -89,-49 -99,-102 -8,-37 -8,-85 -11,-102 -2,-14 1,-30 -1,-45 -3,-15 -4,-170 -1,-179 -6,-3 -55,-12 -38,26 l 15,36 c 2,4 3,15 3,20 3,28 -21,51 -34,63 -14,13 -35,33 -64,33 -20,0 -21,-9 -31,-19 -5,-6 -17,-23 -29,-14 -6,7 -3,26 -6,36 -2,8 -3,8 -3,18 -1,26 -6,20 -7,33 -1,7 0,13 -2,19 -1,6 -4,8 -5,15 0,7 1,11 -1,18 -9,37 1,39 1,73 0,32 -10,39 -13,48 -5,23 15,25 32,30 16,5 20,15 13,23 l -30,11 c -30,5 -76,1 -87,-32 -7,-18 2,-57 -1,-77 z"
       id="path204"
       style="fill:#b20029" /><path
       class="fil14"
       d="m 2017.9016,2603.4219 c -4,-20 7,-84 14,-100 26,-63 62,-70 123,-80 13,-1 61,0 81,-2 l 41,-2 c 21,0 17,-1 17,-30 0,-11 1,-24 -1,-33 h -45 c -20,0 -79,13 -96,13 -12,1 -11,2 -21,5 -8,2 -16,0 -23,3 -23,10 -10,3 -21,7 -12,5 -38,22 -53,29 -30,14 -81,16 -89,18 -16,6 -32,4 -50,6 1,9 4,9 15,26 l 37,66 c 8,14 11,29 17,45 6,16 19,38 29,53 7,9 10,22 20,24 l 3,-45 c 0,-1 0,-1 1,-1 0,0 0,-1 0,-1 0,0 1,-1 1,-1 z"
       id="path240"
       style="fill:#b20029" /><path
       class="fil14"
       d="m 1744.9016,2660.4219 c 3,26 -1,55 2,82 3,20 1,382 1,431 0,29 0,58 0,87 0,14 -1,28 -2,41 -1,13 2,29 0,42 7,-7 4,-15 4,-32 0,-2 0,-5 0,-7 l 4,-10 c 0,-2 0,-3 1,-5 1,-5 2,-6 3,-12 0,-8 0,-18 0,-27 0,-34 5,-67 6,-101 1,-56 -6,-165 -1,-213 2,-17 -1,-35 4,-50 3,-11 4,-9 5,-23 0,-11 15,-52 18,-60 20,-42 36,-27 35,-72 -1,-31 -63,-80 -80,-82 z"
       id="path268"
       style="fill:#b20029" /><path
       class="fil14"
       d="m 1794.9016,2358.4219 c -6,-3 -172,-3 -190,-1 1,8 24,19 39,33 32,31 29,18 49,14 25,-6 36,0 57,-17 6,-5 15,-11 21,-16 11,-7 12,-6 18,-8 10,-4 4,0 6,-5 z"
       id="path322"
       style="fill:#b20029" /></g><g
     id="g5033"><path
       class="fil14"
       d="m 4605.9016,3379.4219 c 3,3 41,95 41,101 h -52 c -1,10 5,20 8,27 25,57 12,33 71,38 l 22,52 c 2,6 2,4 4,9 1,3 2,5 3,7 l 88,207 c 5,11 11,24 15,36 5,11 10,20 15,32 10,30 65,149 67,180 0,7 0,18 -1,25 -1,13 0,8 -5,16 l -2,9 c 5,10 3,1 7,15 2,14 12,31 10,61 -20,5 -74,13 -92,-1 -6,-4 -9,-18 -11,-26 -21,-1 -84,8 -106,7 h -27 c -14,1 -11,5 -11,31 0,19 -4,31 6,33 h 752 c 1,0 1,-1 2,-1 5,-1 3,-38 3,-46 0,-22 -3,-14 -15,-18 -28,-8 -37,-1 -96,-23 -43,-17 -84,-59 -107,-97 -18,-33 -47,-103 -63,-140 l -41,-95 c -17,-35 -35,-82 -51,-118 l -52,-118 c -5,-15 -14,-32 -21,-47 -13,-33 -25,-60 -40,-95 l -41,-95 c -7,-16 -14,-33 -21,-47 -8,-15 -13,-32 -21,-48 -14,-30 -27,-63 -40,-94 -15,-33 -27,-62 -41,-94 -13,-32 -30,-64 -42,-95 l -40,-95 c -7,-19 -39,-83 -40,-94 -5,-4 -5,-6 -7,-10 -12,4 -2,1 -16,14 l -39,41 c -27,27 -67,46 -83,82 -9,20 -8,20 -8,46 1,8 0,20 1,28 2,7 4,12 6,21 1,7 1,16 3,23 3,9 3,10 5,22 1,8 5,12 6,21 2,12 12,40 12,42 3,15 11,31 15,42 16,59 39,80 64,124 5,7 7,12 10,18 9,19 16,46 13,67 l -23,2 c 0,8 3,9 6,18 z"
       id="path180"
       style="fill:#b20029" /><path
       class="fil14"
       d="m 4016.9016,3185.4219 c 1,8 -23,60 -28,70 l -44,103 c -12,30 -32,71 -45,105 l -22,51 c -3,7 -5,12 -8,19 -2,5 -5,9 -7,17 -9,21 -21,46 -30,69 l -8,18 c -25,63 -57,128 -82,191 -12,31 -31,72 -46,104 -21,48 -49,98 -82,140 -15,21 -30,34 -52,49 -58,42 -144,51 -147,53 -6,4 -4,16 -4,30 0,10 -2,26 2,33 3,1 15,1 18,1 85,-1 184,0 269,0 48,0 97,0 145,0 23,0 48,0 71,0 h 68 c 6,-1 2,0 4,-1 0,0 8,-59 -2,-62 -1,0 -1,0 -2,0 -6,-2 -15,0 -23,-1 -7,-2 -16,-6 -27,-2 -1,4 -1,6 0,11 1,5 3,7 0,11 -3,8 -10,8 -19,11 -14,3 -35,7 -51,2 -9,-4 -15,-2 -22,-5 -4,-2 -10,-14 -10,-17 -5,-19 1,-39 1,-56 -19,-15 -42,-48 -49,-74 -5,-15 -8,-46 -7,-66 l 26,-99 c 3,-13 6,-25 12,-37 3,-5 4,-14 6,-20 13,-34 44,-116 58,-145 l 37,-88 c 7,-18 15,-33 22,-54 l 26,-1 5,-1 c 1,-13 22,-54 22,-64 -4,0 -7,1 -11,0 -3,0 -2,1 -5,0 -12,-2 3,-27 10,-41 11,-24 9,-35 18,-38 1,-8 1,-9 5,-14 h -4 c -3,-11 -1,-130 9,-158 3,-9 3,-14 4,-24 3,-11 7,-8 6,-22 -5,0 -4,0 -7,2 z"
       id="path202"
       style="fill:#b20029" /><path
       class="fil14"
       d="m 4130.9016,3545.4219 c 34,0 314,2 324,-1 4,-8 -3,-9 -7,-16 -4,-7 -25,-44 -31,-47 -10,-4 -237,0 -268,-1 l -13,48 c -2,10 -5,6 -5,17 z"
       id="path260"
       style="fill:#b20029" /><path
       class="fil14"
       d="m 4315.9016,2486.4219 -2,14 c 12,-2 5,5 11,13 21,-7 49,-44 84,-51 11,-2 6,-7 21,-6 12,2 36,17 39,17 8,-2 29,-43 3,-56 -7,-3 -35,0 -42,-10 -2,-10 -1,-21 -1,-31 1,-31 15,-22 14,-36 -1,-14 -21,-11 -39,-10 -6,23 -25,27 -30,31 l -51,118 c -2,7 2,5 -7,7 z"
       id="path292"
       style="fill:#b20029" /><path
       class="fil14"
       d="m 4224.9016,2794.4219 c 7,3 10,-4 20,-16 12,-15 15,-19 20,-34 3,-7 5,-5 6,-15 0,-6 1,-33 -3,-37 -6,-7 -30,31 -34,36 -5,13 -15,52 -9,66 z"
       id="path338"
       style="fill:#b20029" /></g></g>
</svg>